<?xml version="1.0" encoding="UTF-8"?>
<!DOCTYPE svg PUBLIC "-//W3C//DTD SVG 1.1//EN" "http://www.w3.org/Graphics/SVG/1.1/DTD/svg11.dtd">
<!-- Creator: CorelDRAW 2018 (64-Bit) -->
<svg xmlns="http://www.w3.org/2000/svg" xml:space="preserve" width="5.04472cm" height="2.28884cm" version="1.1" style="shape-rendering:geometricPrecision; text-rendering:geometricPrecision; image-rendering:optimizeQuality; fill-rule:evenodd; clip-rule:evenodd"
viewBox="0 0 5044.72 2288.84"
 xmlns:xlink="http://www.w3.org/1999/xlink">
 <defs>
  <style type="text/css">
   <![CDATA[
    .fil9 {fill:#B98F3D;fill-rule:nonzero}
    .fil0 {fill:#2A613E;fill-rule:nonzero}
    .fil1 {fill:url(#id0)}
    .fil2 {fill:url(#id1)}
    .fil3 {fill:url(#id2)}
    .fil5 {fill:url(#id3)}
    .fil7 {fill:url(#id4)}
    .fil6 {fill:url(#id5)}
    .fil4 {fill:url(#id6)}
    .fil8 {fill:url(#id7)}
   ]]>
  </style>
  <linearGradient id="id0" gradientUnits="userSpaceOnUse" x1="4178.77" y1="6.79" x2="4178.77" y2="2302.03">
   <stop offset="0" style="stop-opacity:1; stop-color:#BF9442"/>
   <stop offset="0.501961" style="stop-opacity:1; stop-color:#F4E6BC"/>
   <stop offset="1" style="stop-opacity:1; stop-color:#B98F3D"/>
  </linearGradient>
  <linearGradient id="id1" gradientUnits="userSpaceOnUse" xlink:href="#id0" x1="4178.75" y1="6.78" x2="4178.75" y2="2302.02">
  </linearGradient>
  <linearGradient id="id2" gradientUnits="userSpaceOnUse" xlink:href="#id0" x1="3893.17" y1="9.35" x2="3893.17" y2="2300.9">
  </linearGradient>
  <linearGradient id="id3" gradientUnits="userSpaceOnUse" xlink:href="#id0" x1="4388.7" y1="21.99" x2="4388.7" y2="2287.66">
  </linearGradient>
  <linearGradient id="id4" gradientUnits="userSpaceOnUse" xlink:href="#id0" x1="4457.79" y1="6.87" x2="4457.79" y2="2302">
  </linearGradient>
  <linearGradient id="id5" gradientUnits="userSpaceOnUse" xlink:href="#id0" x1="4464.32" y1="9.35" x2="4464.32" y2="2300.9">
  </linearGradient>
  <linearGradient id="id6" gradientUnits="userSpaceOnUse" xlink:href="#id0" x1="3899.74" y1="6.87" x2="3899.74" y2="2302">
  </linearGradient>
  <linearGradient id="id7" gradientUnits="userSpaceOnUse" xlink:href="#id0" x1="3968.86" y1="21.99" x2="3968.86" y2="2287.66">
  </linearGradient>
 </defs>
 <g id="Layer_x0020_1">
  <metadata id="CorelCorpID_0Corel-Layer"/>
  <g id="_2194136857696">
   <g>
    <path class="fil0" d="M4602.85 255.63c-315.16,-117.05 -424.08,-255.64 -424.08,-255.64 0,0 -108.92,138.59 -424.08,255.64 -225.05,83.63 -441.86,230.19 -441.86,639.09l0 249.54 0 0.32 0 249.54c0,408.93 216.81,555.5 441.86,639.09 315.16,117.08 424.08,255.64 424.08,255.64 0,0 108.92,-138.56 424.08,-255.64 225.05,-83.59 441.87,-230.16 441.87,-639.09l0 -249.54 0 -0.32 0 -249.54c0,-408.9 -216.82,-555.46 -441.87,-639.09z"/>
    <path class="fil1" d="M4910.35 1394.09l0 -499.35c0,-316.65 -141.61,-434.12 -354.33,-513.15l0 0c-180.43,-67.04 -301.4,-141.97 -377.25,-200.18 -75.89,58.21 -196.84,133.14 -377.28,200.18 -212.71,79.03 -354.29,196.5 -354.29,513.15l0 0 0 249.51 0 249.84c0,316.66 141.58,434.2 354.29,513.19l0 0c180.44,67 301.39,141.92 377.28,200.14l0 0c75.85,-58.22 196.82,-133.14 377.29,-200.14l0 0c212.68,-78.99 354.29,-196.53 354.29,-513.19zm-1094.26 473.83c-201.82,-75 -326.95,-180.4 -326.95,-473.83l0 0 0 -249.84 0 -249.51c0,-293.38 125.13,-398.82 326.95,-473.79l0 0c139.2,-51.71 263.88,-116.13 362.68,-187.26l0 0c98.85,71.13 223.44,135.55 362.69,187.26l0 0c201.82,74.97 326.92,180.41 326.92,473.79l0 0 0 249.85 0 249.5c0,293.43 -125.1,398.83 -326.92,473.83l0 0c-139.25,51.71 -263.84,116.1 -362.69,187.23l0 0c-98.8,-71.13 -223.48,-135.52 -362.68,-187.23l0 0z"/>
    <path class="fil2" d="M4178.77 457.44l-0.03 0c-0.61,0.03 -1.19,0.27 -1.58,0.84l0 0c-0.88,1.54 -1.95,3.33 -2.44,4.3l0 0c-8.28,14.98 -14.42,31.23 -18.06,48.2l0 0c-0.27,1.2 -1.73,1.77 -2.83,1.12l0 0c-22.88,-14.52 -50.63,-23.07 -80.49,-23.15l0 0c-28.97,-0.12 -55.91,7.67 -78.57,20.82l0 0c-1.49,0.91 -0.89,2.94 0.88,3.06l0 0c33.5,1.88 64.28,12.84 89.49,30.28l0 0c1.46,1.03 0.62,3.18 -1.26,2.98l0 0c-5.98,-0.57 -12.03,-0.84 -18.13,-0.92l0 0c-91.02,-0.61 -168.71,50.4 -196.27,119.54l0 0c-0.61,1.54 1.65,2.96 2.99,1.8l0 0c46.49,-38.09 111.42,-62.47 183.09,-61.13l0 0c0.11,0 0.18,0 0.18,0l0 0c2.23,0.04 2.54,2.88 0.47,3.34l0 0c-96.28,19.43 -171.86,83.2 -191.98,164.91l0 0c-0.35,1.62 1.99,2.88 3.22,1.73l0 0c39.36,-38.01 91.21,-68.61 150.7,-87.35l0 0c1.8,-0.6 3.3,1.5 1.95,2.76l0 0c-58.79,54.31 -95.43,124.53 -96.62,205.71l0 0c-0.04,2.91 -0.04,5.82 0,8.73l0 0c0.04,1.76 2.76,2.58 3.57,1l0 0c24.03,-48.41 60.48,-91.34 105.89,-127.28l0 0c1.38,-1.08 3.61,0.22 2.99,1.87l0 0c-13.26,36.15 -20.65,74.55 -21.11,114.98l0 0c-0.35,33.35 4.1,66.04 12.8,97.7l0 0c0.5,1.76 3.37,1.91 3.68,0.19l0 0c13.18,-63.97 41.47,-122.73 81.09,-175.08l0 0c1.15,-1.46 3.84,-0.38 3.38,1.42l0 0c-6.67,24.96 -10.28,50.9 -10.43,77.73l0 0c-0.19,46.41 9.89,91.14 28.75,132.11l0 0c0.77,1.65 3.53,1.22 3.64,-0.54l0 0c1.11,-16.59 3.64,-32.81 7.29,-48.64l0 0c1.76,28.22 3.48,56.34 5.2,84.52l0 0c0.04,0.38 -0.23,0.65 -0.53,0.8l0 0 -0.23 0c0,0 -0.2,0.08 -0.27,0.12l0 0c-2.84,-0.04 -5.67,-0.08 -8.48,-0.12l0 0c-0.45,-0.03 -0.83,0.39 -0.76,0.88l0 0c2.07,28.4 4.17,56.81 6.28,85.16l0 0c0.05,0.38 -0.15,0.62 -0.41,0.73l0 0c-0.54,0 -1.08,-0.03 -1.65,-0.03l0 0c-0.12,0 -0.23,0.11 -0.35,0.18l0 0c-2.79,-0.03 -5.55,-0.11 -8.35,-0.18l0 0c-0.5,0 -0.93,0.41 -0.85,0.95l0 0c2.5,28.4 4.99,56.76 7.44,85.17l0 0c0.03,0.3 -0.08,0.53 -0.27,0.73l0 0c-1.57,-0.09 -3.14,-0.09 -4.79,-0.17l0 0c-0.19,-0.03 -0.38,0.08 -0.5,0.24l0 0c-2.72,-0.07 -5.48,-0.12 -8.2,-0.24l0 0c-0.49,-0.07 -0.88,0.43 -0.81,0.93l0 0c2.96,28.44 5.94,56.84 8.98,85.24l0 0c0.03,0.27 -0.05,0.5 -0.2,0.68l0 0c-1.73,-0.07 -3.37,-0.15 -5.05,-0.18l0 0c-0.27,-0.05 -0.5,0.11 -0.65,0.23l0 0c-2.69,-0.05 -5.41,-0.12 -8.13,-0.23l0 0c-0.47,-0.05 -0.85,0.42 -0.77,0.88l0 0c3.41,28.62 10.28,83.05 10.28,83.05l0 0 46.79 36.37 46.83 -33.27c0,0 6.9,-57.41 10.31,-86.12l0 0c0.04,-0.49 -0.34,-0.96 -0.84,-0.91l0 0c-2.69,0.11 -5.4,0.18 -8.13,0.26l0 0c-0.11,-0.15 -0.34,-0.31 -0.61,-0.26l0 0c-1.68,0.03 -3.38,0.11 -5.06,0.18l0 0c-0.15,-0.18 -0.23,-0.41 -0.23,-0.41l0 0c3.06,-28.67 6.05,-57.11 9.05,-85.51l0 0c0,-0.5 -0.35,-1 -0.85,-0.93l0 0c-2.71,0.12 -5.44,0.17 -8.2,0.24l0 0c-0.15,-0.12 -0.3,-0.27 -0.53,-0.24l0 0c-1.58,0.08 -3.19,0.08 -4.76,0.17l0 0c-0.19,-0.2 -0.34,-0.43 -0.34,-0.43l0 0c2.52,-28.71 4.98,-57.07 7.51,-85.47l0 0c0.03,-0.54 -0.35,-0.95 -0.8,-0.95l0 0c-2.81,0.07 -5.57,0.15 -8.36,0.18l0 0c-0.12,-0.07 -0.23,-0.18 -0.23,-0.18l0 0c-0.72,0 -1.34,0.03 -1.88,0.07l0 0c-0.22,-0.11 -0.38,-0.31 -0.38,-0.31l0 0c2.11,-28.48 4.25,-57.03 6.36,-85.62l0 0c0,-0.46 -0.31,-0.88 -0.81,-0.88l0 0c-2.83,0.04 -5.67,0.08 -8.47,0.12l0 0c-0.08,-0.04 -0.15,-0.12 -0.15,-0.12l0 0 -0.38 0c-0.31,-0.15 -0.53,-0.42 -0.53,-0.8l0 0c1.76,-28.18 3.48,-56.35 5.24,-84.55l0 0c3.69,15.86 6.21,32.08 7.33,48.67l0 0c0.1,1.81 2.86,2.15 3.59,0.46l0 0c18.82,-40.93 29.02,-85.66 28.75,-132.07l0 0c-0.11,-26.79 -3.76,-52.82 -10.39,-77.73l0 0c-0.45,-1.79 2.23,-2.91 3.38,-1.38l0 0c39.62,52.35 67.87,111.11 81.06,175.04l0 0c0.38,1.73 3.18,1.61 3.68,-0.19l0 0c8.69,-31.62 13.15,-64.35 12.8,-97.66l0 0c-0.42,-40.47 -7.82,-78.87 -21.12,-115.01l0 0c-0.58,-1.62 1.61,-2.95 2.99,-1.88l0 0c45.45,35.98 81.86,78.91 105.89,127.32l0 0c0.77,1.53 3.53,0.73 3.56,-1l0 0c0.09,-2.91 0.09,-5.87 0.05,-8.78l0 0c-1.19,-81.13 -37.79,-151.38 -96.66,-205.69l0 0c-1.35,-1.23 0.15,-3.33 1.95,-2.73l0 0c59.49,18.74 111.34,49.29 150.74,87.32l0 0c1.19,1.14 3.57,-0.08 3.18,-1.7l0 0c-20.12,-81.74 -95.66,-145.52 -191.94,-164.95l0 0c-2.06,-0.42 -1.79,-3.26 0.39,-3.3l0 0 0.15 0c71.75,-1.38 136.67,23 183.16,61.13l0 0c1.34,1.12 3.64,-0.26 3.03,-1.83l0 0c-27.56,-69.11 -105.25,-120.16 -196.31,-119.54l0 0c-6.1,0.11 -12.11,0.42 -18.12,0.91l0 0c-1.85,0.2 -2.73,-1.91 -1.23,-2.94l0 0c25.21,-17.48 55.95,-28.45 89.49,-30.32l0 0c1.76,-0.11 2.33,-2.19 0.88,-3.02l0 0c-22.66,-13.15 -49.63,-20.97 -78.61,-20.86l0 0c-29.89,0.12 -57.56,8.67 -80.48,23.15l0 0c-1.12,0.65 -2.6,0.12 -2.84,-1.08l0 0c-3.64,-17.01 -9.77,-33.22 -18.02,-48.25l0 0c-0.53,-0.95 -1.6,-2.76 -2.48,-4.29l0 0c-0.35,-0.53 -0.96,-0.8 -1.58,-0.84l0 0.04z"/>
    <path class="fil3" d="M3942.72 1612.94c-46.91,19.2 -77.15,24.26 -94.2,25.07l0 0c-19.28,0.92 -26.83,-2.96 -28.59,-4.11l0 0c-1.69,-3.22 -3.87,-5.98 -6.48,-8.19l0 0c0,0 -3.18,-2.46 -7.12,-1.43l0 0c-1.55,0.35 -3.16,1.46 -4.38,3.14l0 0c-1.31,1.66 -2.11,3.96 -2.03,6.52l0 0c0.07,2.57 1.3,5.22 3.45,7.36l0 0c1.03,1.04 2.46,2.03 3.87,2.91l0 0c1.45,0.92 3.03,1.77 4.68,2.57l0 0c3.34,1.49 7.05,2.72 11.07,3.57l0 0c4.11,0.88 8.43,1.38 13.07,1.6l0 0c4.56,0.2 9.39,0.12 14.45,-0.22l0 0c10.08,-0.73 20.92,-2.57 32.35,-5.25l0 0c22.88,-5.49 48.02,-14.57 74.62,-26.38l0 0c9.43,-4.21 19.09,-8.77 28.9,-13.63l0 0c-0.96,-1.35 -8.24,-8.55 -8.48,-9.21l0 0c-12.14,5.8 -23.87,11.04 -35.18,15.68l0 0z"/>
    <path class="fil4" d="M3961.16 1628.92c-27.25,11.35 -53.2,19.7 -76.81,24.46l0 0c-5.9,1.11 -11.69,2.06 -17.28,2.71l0 0c-5.6,0.7 -11.04,1.08 -16.29,1.23l0 0c-10.46,0.27 -20.19,-0.61 -28.71,-2.88l0 0c-4.25,-1.14 -8.19,-2.64 -11.69,-4.52l0 0c-1.76,-0.92 -3.4,-1.95 -4.9,-3.06l0 0c-1.5,-1.08 -2.88,-2.18 -4.18,-3.56l0 0c-1.19,-1.35 -2.14,-2.88 -2.8,-4.45l0 0c-0.65,-1.62 -1,-3.3 -0.95,-4.86l0 0c0,-3.19 1.3,-5.91 2.87,-7.83l0 0c1.6,-1.92 3.63,-3.06 5.51,-3.45l0 0c1.23,-0.31 2.38,-0.23 3.34,0l0 0c-7.55,-4.48 -17.06,-5.25 -25.64,-1.34l0 0c-26.87,11.42 -18.74,41.39 -15.48,48.64l0 0c7.55,16.82 24.06,28.93 46.45,34.22l0 0c9.01,2.15 18.9,3.22 29.71,3.22l0 0c42.92,0 99.9,-16.63 167.13,-48.9l0 0c2.61,-1.27 5.26,-2.53 7.86,-3.84l0 0 0.04 0c1.61,-0.8 8.28,-4.21 8.28,-4.21 -2.96,-3.53 -9.01,-10.54 -14.65,-16.75l0 0c-6.24,-7.16 -14.78,-16.71 -18.89,-19.66 0,0 -21.7,10.15 -32.92,14.83l0 0z"/>
    <path class="fil5" d="M4693.66 1187.4c-50.75,3.22 -104.29,16.67 -159.07,40.02l0 0c-67.37,28.7 -130.95,73.05 -206.92,130.5l0 0c-84.28,63.69 -156.94,123.67 -224.36,167.29l0 0c-33.27,21.5 -64.62,39.97 -93.78,55.27l0 0c-35.42,-38.29 -29.44,-63.01 -29.44,-63.01l0 0c-14.87,-10.89 -26.25,-3.72 -26.25,-3.72l0 0c-21.27,17.21 0.27,43.12 27.47,70.33l0 0c2.27,2.18 15.53,15.49 15.68,15.41l0 0c2.34,2.34 22.92,23.53 27.94,31.89l0 0c0.5,0.41 2.26,3.71 2.81,4.67l0 0c21.15,37.18 -1,65.08 -1,65.08l0 0c17.51,19.93 27.7,11.08 27.7,11.08l0 0c19.78,-12 16.53,-43.24 0.2,-73.05l0 0c89.72,-48.57 195.5,-123.15 315.27,-222.26l0 0c28.51,-23.57 56.91,-44.69 85.01,-63.28l0 0c52.55,-38.36 105.24,-67.37 155.48,-90.33l0 0c90.11,-41.17 189.8,-58.41 208.27,-56.54l0 0c1.77,0.24 2.3,-2.26 0.69,-2.87l0 0c-0.46,-0.19 -0.88,-0.34 -1.38,-0.54l0 0c-2.41,-0.73 -12.34,-3.98 -21.31,-6.78l0 0c-23.11,-7.25 -48.44,-10.04 -75.19,-10.04l0 0c-9.13,0 -18.41,0.31 -27.82,0.88zm-359.01 177.3c3.71,-2.8 7.4,-5.63 11.11,-8.36l0 0c3.69,-2.79 7.4,-5.55 11.16,-8.31l0 0c3.67,-2.76 7.43,-5.44 11.15,-8.17l0 0c7.4,-5.52 14.9,-10.8 22.38,-16.17l0 0c14.91,-10.58 29.9,-20.89 44.88,-30.74l0 0c15.02,-9.89 30.01,-19.35 45.07,-28.13l0 0c30.05,-17.71 60.44,-32.73 90.46,-43.85l0 0c1.88,-0.68 3.75,-1.33 5.63,-2.03l0 0c0.92,-0.3 1.87,-0.65 2.8,-0.95l0 0 2.83 -0.96c1.84,-0.65 3.72,-1.27 5.6,-1.88l0 0c1.8,-0.58 3.71,-1.18 5.55,-1.76l0 0c0.92,-0.27 1.85,-0.58 2.76,-0.85l0 0c0.92,-0.3 1.85,-0.53 2.76,-0.84l0 0c1.88,-0.49 3.73,-1.07 5.56,-1.57l0 0c1.84,-0.54 3.68,-1 5.48,-1.53l0 0c0.96,-0.23 1.84,-0.5 2.72,-0.73l0 0c0.96,-0.23 1.84,-0.47 2.76,-0.69l0 0c1.81,-0.46 3.64,-0.92 5.45,-1.42l0 0c1.8,-0.42 3.59,-0.84 5.4,-1.27l0 0c0.88,-0.18 1.8,-0.42 2.68,-0.61l0 0c0.92,-0.22 1.8,-0.42 2.68,-0.65l0 0c1.76,-0.35 3.53,-0.77 5.29,-1.15l0 0c7.13,-1.57 14.07,-2.95 20.93,-4.1l0 0c13.76,-2.37 26.98,-4.03 39.66,-5.06l0 0c12.62,-1.07 26.53,-0.65 37.83,-0.62l0 0c12.16,0.05 23.2,1.31 33.27,2.88l0 0c-10.72,-0.92 -22.41,-1.45 -35.15,-1.38l0 0c-11.22,0.08 -23.18,0.61 -35.71,1.81l0 0c-12.58,1.15 -25.72,2.94 -39.33,5.44l0 0c-6.78,1.23 -13.72,2.68 -20.72,4.29l0 0c-1.78,0.38 -3.54,0.8 -5.34,1.23l0 0c-0.84,0.18 -1.76,0.45 -2.64,0.65l0 0c-0.88,0.18 -1.77,0.46 -2.65,0.65l0 0c-1.79,0.46 -3.6,0.91 -5.37,1.34l0 0c-1.79,0.5 -3.56,0.92 -5.35,1.42l0 0c-0.93,0.23 -1.85,0.5 -2.73,0.73l0 0c-0.92,0.26 -1.8,0.53 -2.72,0.76l0 0c-1.8,0.5 -3.6,1.07 -5.44,1.53l0 0c-1.8,0.62 -3.64,1.15 -5.49,1.7l0 0c-0.88,0.3 -1.8,0.57 -2.71,0.83l0 0 -2.76 0.88c-1.85,0.62 -3.64,1.2 -5.49,1.81l0 0c-1.83,0.65 -3.67,1.3 -5.55,1.95l0 0c-0.88,0.31 -1.85,0.62 -2.76,0.96l0 0c-0.88,0.31 -1.8,0.65 -2.76,1l0 0c-1.84,0.69 -3.68,1.38 -5.56,2.07l0 0c-96.35,31.77 -211.91,123.33 -248.01,147.74l0 0c3.41,-2.68 6.9,-5.24 10.39,-7.89l0 0z"/>
    <path class="fil6" d="M4371.13 1606.47c9.82,4.86 19.48,9.42 28.94,13.63l0 0c26.57,11.81 51.74,20.89 74.59,26.38l0 0c11.41,2.68 22.27,4.52 32.38,5.25l0 0c5.02,0.34 9.86,0.42 14.45,0.22l0 0c4.6,-0.22 9.01,-0.72 13.03,-1.6l0 0c4.06,-0.85 7.78,-2.08 11.11,-3.57l0 0c1.65,-0.8 3.18,-1.65 4.64,-2.57l0 0c1.42,-0.88 2.84,-1.87 3.88,-2.91l0 0c2.18,-2.14 3.37,-4.79 3.44,-7.36l0 0c0.15,-2.56 -0.73,-4.86 -1.99,-6.52l0 0c-1.27,-1.68 -2.87,-2.79 -4.41,-3.14l0 0c-3.94,-1.03 -7.09,1.43 -7.09,1.43l0 0c-2.61,2.21 -4.82,4.97 -6.48,8.19l0 0c-1.76,1.15 -9.35,5.03 -28.59,4.11l0 0c-17.09,-0.81 -47.25,-5.87 -94.2,-25.07l0 0c-11.31,-4.64 -23.04,-9.88 -35.22,-15.68l0 0c-0.2,0.66 -7.48,7.86 -8.48,9.21l0 0z"/>
    <path class="fil7" d="M4344.54 1633.75c-5.63,6.21 -11.65,13.22 -14.64,16.75 0,0 6.7,3.41 8.28,4.21l0 0 0.03 0c2.61,1.31 5.29,2.57 7.9,3.84l0 0c67.18,32.27 124.18,48.9 167.1,48.9l0 0c10.81,0 20.73,-1.07 29.71,-3.22l0 0c22.38,-5.29 38.93,-17.4 46.48,-34.22l0 0c3.26,-7.25 11.39,-37.22 -15.48,-48.64l0 0c-8.62,-3.91 -18.13,-3.14 -25.68,1.34l0 0c0.95,-0.23 2.11,-0.31 3.33,0l0 0c1.88,0.39 3.91,1.53 5.52,3.45l0 0c1.65,1.92 2.88,4.64 2.88,7.83l0 0c0.03,1.56 -0.27,3.24 -0.92,4.86l0 0c-0.65,1.57 -1.61,3.1 -2.84,4.45l0 0c-1.26,1.38 -2.64,2.48 -4.14,3.56l0 0c-1.53,1.11 -3.14,2.14 -4.91,3.06l0 0c-3.52,1.88 -7.43,3.38 -11.68,4.52l0 0c-8.51,2.27 -18.25,3.15 -28.74,2.88l0 0c-5.26,-0.15 -10.66,-0.53 -16.3,-1.23l0 0c-5.55,-0.65 -11.34,-1.6 -17.24,-2.71l0 0c-23.65,-4.76 -49.6,-13.11 -76.84,-24.46l0 0c-11.24,-4.68 -32.89,-14.83 -32.89,-14.83 -4.1,2.95 -12.69,12.5 -18.93,19.66l0 0z"/>
    <path class="fil8" d="M3560.84 1196.56c-8.93,2.8 -18.89,6.05 -21.31,6.78l0 0c-0.46,0.2 -0.92,0.35 -1.38,0.54l0 0c-1.6,0.61 -1.04,3.11 0.69,2.87l0 0c18.55,-1.87 118.23,15.37 208.26,56.54l0 0c50.3,22.96 102.95,51.97 155.49,90.33l0 0c28.1,18.59 56.5,39.71 85.01,63.28l0 0c119.77,99.11 225.59,173.69 315.27,222.26l0 0c-16.28,29.81 -19.58,61.05 0.2,73.05l0 0c0,0 10.23,8.85 27.71,-11.08l0 0c0,0 -22.12,-27.9 -0.97,-65.08l0 0c0.55,-0.96 2.31,-4.26 2.76,-4.67l0 0c5.07,-8.36 25.61,-29.55 27.95,-31.89l0 0c0.19,0.08 13.41,-13.23 15.67,-15.41l0 0c27.25,-27.21 48.75,-53.12 27.52,-70.33l0 0c0,0 -11.42,-7.17 -26.29,3.72l0 0c0,0 5.98,24.72 -29.4,63.01l0 0c-29.2,-15.3 -60.55,-33.77 -93.82,-55.27l0 0c-67.41,-43.62 -140.08,-103.6 -224.32,-167.29l0 0c-76.01,-57.45 -139.55,-101.8 -206.92,-130.5l0 0c-54.81,-23.35 -108.32,-36.8 -159.1,-40.02l0 0c-9.43,-0.57 -18.7,-0.88 -27.82,-0.88l0 0c-26.71,0 -52.09,2.79 -75.2,10.04zm61.48 -4.26c11.3,-0.03 25.17,-0.45 37.86,0.62l0 0c12.61,1.03 25.87,2.69 39.59,5.06l0 0c6.87,1.15 13.84,2.53 20.92,4.1l0 0c1.77,0.38 3.53,0.8 5.34,1.15l0 0c0.83,0.23 1.76,0.43 2.64,0.65l0 0c0.88,0.19 1.8,0.43 2.68,0.61l0 0c1.81,0.43 3.64,0.85 5.41,1.27l0 0c1.79,0.5 3.64,0.96 5.48,1.42l0 0c0.88,0.22 1.76,0.46 2.72,0.69l0 0c0.88,0.23 1.84,0.5 2.76,0.73l0 0c1.8,0.53 3.6,0.99 5.48,1.53l0 0c1.84,0.5 3.64,1.08 5.52,1.57l0 0c0.92,0.31 1.83,0.54 2.76,0.84l0 0c0.95,0.27 1.88,0.58 2.8,0.85l0 0c1.84,0.58 3.72,1.18 5.6,1.76l0 0c1.83,0.61 3.67,1.23 5.55,1.88l0 0 2.8 0.96c0.96,0.3 1.88,0.65 2.79,0.95l0 0 5.64 2.03c30.01,11.12 60.41,26.14 90.49,43.85l0 0c15.02,8.78 30.05,18.24 45.07,28.13l0 0c14.94,9.85 29.93,20.16 44.92,30.74l0 0c7.4,5.37 14.9,10.65 22.34,16.17l0 0c3.72,2.73 7.44,5.41 11.15,8.17l0 0c3.73,2.76 7.44,5.52 11.11,8.31l0 0c3.73,2.73 7.45,5.56 11.16,8.36l0 0c3.46,2.65 6.94,5.21 10.39,7.89l0 0c-36.07,-24.41 -151.65,-115.97 -248.05,-147.74l0 0c-1.88,-0.69 -3.72,-1.38 -5.55,-2.07l0 0c-0.88,-0.35 -1.85,-0.69 -2.76,-1l0 0c-0.93,-0.34 -1.88,-0.65 -2.76,-0.96l0 0c-1.88,-0.65 -3.69,-1.3 -5.52,-1.95l0 0c-1.88,-0.61 -3.68,-1.19 -5.52,-1.81l0 0 -2.76 -0.88c-0.88,-0.26 -1.8,-0.53 -2.73,-0.83l0 0c-1.83,-0.55 -3.64,-1.08 -5.44,-1.7l0 0c-1.84,-0.46 -3.67,-1.03 -5.44,-1.53l0 0c-0.96,-0.23 -1.84,-0.5 -2.76,-0.76l0 0c-0.88,-0.23 -1.76,-0.5 -2.69,-0.73l0 0c-1.79,-0.5 -3.59,-0.92 -5.35,-1.42l0 0c-1.81,-0.43 -3.61,-0.88 -5.37,-1.34l0 0c-0.88,-0.19 -1.77,-0.47 -2.65,-0.65l0 0c-0.88,-0.2 -1.8,-0.47 -2.68,-0.65l0 0c-1.76,-0.43 -3.52,-0.85 -5.29,-1.23l0 0c-7.01,-1.61 -13.91,-3.06 -20.78,-4.29l0 0c-13.55,-2.5 -26.7,-4.29 -39.28,-5.44l0 0c-12.53,-1.2 -24.52,-1.73 -35.75,-1.81l0 0c-12.69,-0.07 -24.42,0.46 -35.11,1.38l0 0c10.07,-1.57 21.11,-2.83 33.27,-2.88l0 0z"/>
   </g>
   <g>
    <path class="fil0" d="M587.06 449.43c18.59,0 34.19,-5.9 46.71,-17.67 12.19,-12.19 18.24,-27.17 18.24,-45.03 0,-18.63 -6.05,-34.04 -18.24,-46.18 -12.52,-11.77 -28.12,-17.68 -46.71,-17.68 -17.52,0 -32.31,5.91 -44.46,17.68 -12.19,12.53 -18.25,27.93 -18.25,46.18 0,17.86 6.06,32.84 18.25,45.03 12.15,11.77 26.94,17.67 44.46,17.67z"/>
    <path class="fil0" d="M1474.06 449.43c18.62,0 34.22,-5.9 46.76,-17.67 12.15,-12.19 18.24,-27.17 18.24,-45.03 0,-18.63 -6.09,-34.04 -18.24,-46.18 -12.54,-11.77 -28.14,-17.68 -46.76,-17.68 -17.48,0 -32.31,5.91 -44.46,17.68 -12.18,12.53 -18.25,27.93 -18.25,46.18 0,17.86 6.07,32.84 18.25,45.03 12.15,11.77 26.98,17.67 44.46,17.67z"/>
    <path class="fil0" d="M1609.78 449.43c18.58,0 34.19,-5.9 46.71,-17.67 12.19,-12.19 18.24,-27.17 18.24,-45.03 0,-18.63 -6.05,-34.04 -18.24,-46.18 -12.52,-11.77 -28.13,-17.68 -46.71,-17.68 -17.52,0 -32.31,5.91 -44.46,17.68 -12.19,12.53 -18.25,27.93 -18.25,46.18 0,17.86 6.06,32.84 18.25,45.03 12.15,11.77 26.94,17.67 44.46,17.67z"/>
    <path class="fil0" d="M2259.41 1084.29l-221.75 0 0 -137.32c0,-54.74 17.32,-97.32 51.89,-127.71 9.12,-8.05 20.89,-15.68 35.37,-23 19.74,-9.92 41.01,-16.59 62.63,-21.16l71.86 -15.13 0 324.32zm121.69 -507.07c-16.79,10.39 -73.63,39.06 -232.26,73.33 -61.63,13.29 -114.41,38.93 -157.33,81.51 -54.39,54.35 -81.51,125.03 -81.51,212.07l0 262.84c0,2.45 1.98,4.44 4.44,4.44l345.54 0c0,69.79 -56.56,126.36 -126.31,126.36l-209.88 0c-2.3,0 -3.83,2.3 -2.99,4.41l47.91 117.28c1.5,3.61 5.02,5.98 8.93,5.98l156.6 -0.31c139.74,-0.3 252.88,-113.64 252.88,-253.37l0 -631.08c0,-3.15 -3.38,-5.11 -6.02,-3.46z"/>
    <path class="fil0" d="M1653.96 1084.29l-221.76 0 0 -137.32c0,-54.74 17.29,-97.32 51.86,-127.71 9.15,-8.05 20.93,-15.68 35.37,-23 19.78,-9.92 41.06,-16.59 62.66,-21.16l71.87 -15.13 0 324.32zm121.65 -507.07c-16.75,10.43 -73.63,39.06 -232.26,73.33 -61.63,13.29 -114.36,38.93 -157.33,81.51 -54.34,54.35 -81.52,125.03 -81.52,212.07l0 140.16 -222.41 0 0 -758.29c0,-2.27 -2.26,-3.88 -4.44,-3.11l-120.51 43.88c-1.29,0.5 -2.14,1.73 -2.14,3.11l0 837.74c0,2.11 1.69,3.79 3.8,3.79l350.18 0 345.56 0 123.22 0c2.14,0 3.91,-1.72 3.91,-3.87l0 -25.76 0 -601.1c0,-3.15 -3.41,-5.11 -6.06,-3.46z"/>
    <path class="fil0" d="M699.26 1084.29l-211.98 0 -9.78 0 0 -137.32c0,-54.74 17.33,-97.32 51.9,-127.71 9.13,-8.05 20.89,-15.68 35.37,-23 19.74,-9.92 41.02,-16.59 62.64,-21.16l71.85 -15.13 0 324.32zm121.65 -507.07c-16.74,10.43 -73.58,39.06 -232.22,73.33 -61.62,13.29 -114.4,38.93 -157.33,81.51 -54.38,54.35 -81.52,125.03 -81.52,212.07l0 140.16 -93.28 0 -18.82 0c-22.8,-2.65 -43.35,-11.19 -61.6,-25.64 -31.54,-25.11 -47.29,-63.28 -47.29,-114.61l0 -237.47c0,-1.98 -1.91,-3.44 -3.83,-2.91l-122.8 34.34c-1.31,0.38 -2.22,1.54 -2.22,2.92l0 224.24c0,79.42 25.45,141.93 76.39,187.54 38.39,34.6 81.9,54.15 130.53,58.71l39.71 0 310.75 0 265.79 0c2.11,0 3.8,-1.68 3.8,-3.79l0 -626.94c0,-3.15 -3.38,-5.11 -6.06,-3.46z"/>
    <path class="fil0" d="M2637.13 352.38l-120.53 43.88c-1.3,0.46 -2.14,1.68 -2.14,3.11l0 808.18c0,2.15 1.72,3.87 3.83,3.87l119.42 0c2.15,0 3.88,-1.72 3.88,-3.87l0 -852.07c0,-2.3 -2.3,-3.9 -4.46,-3.1z"/>
    <path class="fil0" d="M2518.08 357.07l121.76 -46.71c1.04,-0.38 1.73,-1.38 1.73,-2.49l0 -47.73c0,-1.87 -1.88,-3.17 -3.64,-2.48l-121.77 46.72c-1.03,0.38 -1.71,1.38 -1.71,2.49l0 47.72c0,1.83 1.91,3.18 3.63,2.48z"/>
    <path class="fil0" d="M2641.58 147.87l0 48.57c0,2.03 -1,3.97 -2.73,5.12 -7.2,4.91 -27.55,18.06 -45.99,23.08 -43,11.76 -34.81,61.82 -5.83,53.08 28.09,-8.47 -49.43,54.19 -48.21,53.36 1.22,-0.81 2.87,-22.88 2.87,-22.88 0,0 -27.24,-18.71 -27.24,-47.76 0,-29.1 15.7,-60.76 70.21,-78.8 34.27,-11.31 48.55,-26.72 53.96,-34.69 0.93,-1.3 2.96,-0.65 2.96,0.92z"/>
    <path class="fil9" d="M508.53 1626.47c5.29,0 9.66,-1.65 13.22,-4.98 3.45,-3.46 5.14,-7.67 5.14,-12.73 0,-5.25 -1.69,-9.62 -5.14,-13.03 -3.56,-3.33 -7.93,-5.02 -13.22,-5.02 -4.91,0 -9.12,1.69 -12.57,5.02 -3.41,3.53 -5.14,7.9 -5.14,13.03 0,5.06 1.73,9.27 5.14,12.73 3.45,3.33 7.66,4.98 12.57,4.98z"/>
    <path class="fil9" d="M463.44 1626.47c5.26,0 9.66,-1.65 13.23,-4.98 3.41,-3.46 5.14,-7.67 5.14,-12.73 0,-5.25 -1.73,-9.62 -5.14,-13.03 -3.57,-3.33 -7.97,-5.02 -13.23,-5.02 -4.94,0 -9.11,1.69 -12.57,5.02 -3.41,3.53 -5.12,7.9 -5.12,13.03 0,5.06 1.71,9.27 5.12,12.73 3.46,3.33 7.63,4.98 12.57,4.98z"/>
    <path class="fil9" d="M941.79 1721.39c0,24.03 -4.97,40.93 -14.98,50.7 -5.79,5.6 -13.42,8.4 -22.88,8.4l-6.24 0 -3.26 0 -8.55 0 0 -240.11 -29.98 15.71 0 224.4 -45.26 0 0 -131.04 -29.97 15.67 0 115.37 -9.92 0c-4.06,0.3 -10.46,-2.46 -19.17,-8.4l-20.12 22.24c12.04,10.72 25.1,16.09 39.29,16.09l123.68 0 3.26 0 5.12 0c17.94,0 32.63,-5.37 44.12,-16.09 16.52,-15.57 24.79,-39.86 24.79,-72.94l0 -180.68 -29.93 15.72 0 164.96z"/>
    <path class="fil9" d="M1142.69 1626.47c5.25,0 9.66,-1.69 13.18,-4.98 3.57,-3.46 5.34,-7.7 5.34,-12.77 0,-5.24 -1.77,-9.58 -5.34,-13.02 -3.52,-3.34 -7.93,-5.03 -13.18,-5.03 -4.94,0 -9.12,1.69 -12.57,5.03 -3.41,3.56 -5.14,7.89 -5.14,13.02 0,5.07 1.73,9.31 5.14,12.77 3.45,3.29 7.63,4.98 12.57,4.98z"/>
    <path class="fil9" d="M1191.65 1626.47c5.24,0 9.66,-1.69 13.19,-4.98 3.44,-3.46 5.17,-7.7 5.17,-12.77 0,-5.24 -1.73,-9.58 -5.17,-13.02 -3.53,-3.34 -7.95,-5.03 -13.19,-5.03 -4.95,0 -9.12,1.69 -12.57,5.03 -3.41,3.56 -5.14,7.89 -5.14,13.02 0,5.07 1.73,9.31 5.14,12.77 3.45,3.29 7.62,4.98 12.57,4.98z"/>
    <path class="fil9" d="M1374.4 1778.47l-74.88 0 0 -84.17c0,0 35.99,-2.33 57.34,19.01 10.76,10.77 17.54,31.04 17.54,48.52l0 16.64zm-174.8 0l-74.89 0 0 -16.64c0,-17.48 6.78,-37.75 17.56,-48.52 21.35,-21.34 57.33,-19.01 57.33,-19.01l0 84.17zm204.78 -15.33c0,-24.61 2.76,-48.57 -20.73,-72.07 -15.75,-15.74 -43.66,-22.45 -62.98,-25.32 -16.82,-2.46 -33.11,-7.79 -48.48,-15.1l-2.6 -1.27 0 131.12 -40.06 0 0 -131.12 -2.64 1.27c-15.33,7.31 -31.61,12.64 -48.41,15.1 -19.35,2.87 -47.25,9.58 -62.97,25.32 -23.53,23.5 -20.77,47.46 -20.77,72.07l0 47.29 3.14 0 -0.03 0 306.38 0 0.15 0 0 -8.78 0.35 -21.15 -0.35 0 0 -17.36z"/>
    <path class="fil9" d="M1705.63 1721.39c0,24.03 -4.99,40.93 -14.99,50.7 -5.78,5.6 -13.41,8.4 -22.88,8.4l-6.25 0 -3.21 0 -102.3 0 -4.44 0 0 -16.48c0,-17.52 4.06,-39.94 14.87,-50.71 21.35,-21.39 87.27,-19.01 87.27,-19.01l0 -44.91 -2.65 1.26c-15.33,7.32 -31.62,12.61 -48.44,15.1 -19.32,2.87 -47.22,9.58 -62.97,25.33 -23.5,23.49 -20.74,49.6 -20.74,74.21l0 15.21 -19.73 0 -3.08 0 -24.44 0 0 -237.35 -29.98 15.66 0 251.62 54.42 0 3.23 0 158.98 0 2.56 0 5.79 0c17.94,0 32.61,-5.37 44.11,-16.09 16.56,-15.57 24.8,-39.86 24.8,-72.94l0 -181.63 -29.93 15.68 0 165.95z"/>
    <polygon class="fil9" points="1769.39,1810.43 1799.36,1810.43 1799.36,1539.77 1769.39,1555.45 "/>
    <path class="fil9" d="M1950.89 1626.47c5.26,0 9.66,-1.69 13.19,-4.98 3.56,-3.46 5.32,-7.7 5.32,-12.77 0,-5.24 -1.76,-9.58 -5.32,-13.02 -3.53,-3.34 -7.93,-5.03 -13.19,-5.03 -4.94,0 -9.12,1.69 -12.57,5.03 -3.41,3.56 -5.13,7.89 -5.13,13.02 0,5.07 1.72,9.31 5.13,12.77 3.45,3.29 7.63,4.98 12.57,4.98z"/>
    <path class="fil9" d="M1999.85 1626.47c5.25,0 9.66,-1.69 13.23,-4.98 3.41,-3.46 5.13,-7.7 5.13,-12.77 0,-5.24 -1.72,-9.58 -5.13,-13.02 -3.57,-3.34 -7.98,-5.03 -13.23,-5.03 -4.94,0 -9.12,1.69 -12.57,5.03 -3.41,3.56 -5.14,7.89 -5.14,13.02 0,5.07 1.73,9.31 5.14,12.77 3.45,3.29 7.63,4.98 12.57,4.98z"/>
    <path class="fil9" d="M2212.28 1839.1c-4.95,0 -9.13,1.64 -12.58,4.97 -3.41,3.57 -5.13,7.9 -5.13,13.07 0,5.02 1.72,9.28 5.13,12.69 3.45,3.34 7.63,5.02 12.58,5.02 5.25,0 9.66,-1.68 13.18,-5.02 3.56,-3.41 5.32,-7.67 5.32,-12.69 0,-5.29 -1.76,-9.61 -5.32,-13.07 -3.52,-3.33 -7.93,-4.97 -13.18,-4.97z"/>
    <path class="fil9" d="M2261.23 1839.1c-4.95,0 -9.12,1.64 -12.58,4.97 -3.41,3.57 -5.12,7.9 -5.12,13.07 0,5.02 1.71,9.28 5.12,12.69 3.46,3.34 7.63,5.02 12.58,5.02 5.25,0 9.66,-1.68 13.18,-5.02 3.46,-3.41 5.17,-7.67 5.17,-12.69 0,-5.29 -1.71,-9.61 -5.17,-13.07 -3.52,-3.33 -7.93,-4.97 -13.18,-4.97z"/>
    <path class="fil9" d="M2411.8 1780.49l-38.01 0 0 -7.25c0,-7.08 0.22,-14.63 2.76,-21.42 3.24,-8.66 13.07,-13.68 22,-10.92 12.37,3.91 13.14,19.74 13.25,30.55 0,0.56 0,1.18 0,1.79l0 7.25zm-408.29 -2.04l-74.89 0 0 -24.25c0,-17.52 6.74,-30.13 17.55,-40.9 21.35,-21.35 57.34,-19.01 57.34,-19.01l0 84.16zm544.2 -57.06c0,24.03 -4.99,40.93 -14.95,50.7 -5.82,5.6 -13.42,8.4 -22.88,8.4l-6.44 0 -3.06 0 -5.37 0 0 -24.91c0,-24.61 2.76,-40.9 -20.77,-64.43 -15.71,-15.72 -43.62,-22.46 -62.97,-25.3 -16.83,-2.49 -33.08,-7.78 -48.41,-15.09l-2.64 -1.27 0 44.92 29.93 0c0,0 35.99,-2.38 57.34,19 10.77,10.78 17.54,23.38 17.54,40.9l0 26.18 -5.89 0 -17.37 0 0 -7.25c0,-23.61 -5.71,-40.7 -17.1,-51.24 -8.88,-8.24 -20.04,-12.38 -31.88,-12.38 -11.8,0 -22.96,4.14 -31.89,12.38 -11.37,10.54 -17.05,27.63 -17.05,51.24l0 7.25 -33.04 0 -2.57 0 -30.28 0 0 -131.11 -29.93 15.71 0 115.4 -61.51 0 -3.06 0 -29.82 0 0 -131.11 -29.94 15.71 0 115.4 -90.25 0 0 -131.11 -2.64 1.26c-15.34,7.32 -31.63,12.64 -48.46,15.1 -19.32,2.87 -47.21,9.58 -62.97,25.33 -23.49,23.49 -20.73,47.45 -20.73,72.06l0 47.29 284.66 0 3.02 0 121.26 0 3.07 0 189.72 0 3.21 0 5.14 0c17.97,0 32.66,-5.37 44.15,-16.09 16.52,-15.57 24.79,-39.86 24.79,-72.94l0 -178.14 -29.96 15.72 0 162.42z"/>
    <polygon class="fil9" points="2611.51,1558.94 2611.51,1810.45 2641.44,1810.45 2641.44,1543.23 "/>
    <path class="fil9" d="M515.43 1778.47l-74.89 0 0 -24.16c0,-17.51 6.79,-30.15 17.56,-40.92 21.35,-21.35 57.33,-18.98 57.33,-18.98l0 84.06zm29.97 -129.02l-2.68 1.27c-15.33,7.36 -31.58,12.65 -48.4,15.14 -19.36,2.83 -47.26,9.58 -62.97,25.3 -23.54,23.49 -20.74,39.82 -20.74,64.43l0 24.91 -54.88 0 0 -237.4 -29.93 15.71 0 251.62 219.68 0 -0.08 -15.06 0 -145.92z"/>
    <path class="fil9" d="M674.61 1778.47l-74.89 0 0 -24.16c0,-17.51 6.79,-30.15 17.56,-40.92 21.35,-21.35 57.33,-18.98 57.33,-18.98l0 84.06zm-21.11 -112.61c-19.36,2.83 -47.26,9.58 -62.98,25.3 -23.53,23.49 -20.73,39.82 -20.73,64.43l0 54.41 104.67 0 0 27.8c0,9.27 -2.79,16.81 -8.39,22.72 -6.09,6.43 -15.83,9.66 -29.12,9.66l-32.39 0 15.36 29.93 17.03 0c22.1,0 39.24,-6.47 51.35,-19.47 10.84,-11.69 16.29,-25.76 16.29,-42.19 0,-1.15 -0.08,-2.41 -0.2,-3.69l0 -24.76 0.2 0 0 -160.55 -2.69 1.27c-15.33,7.36 -31.58,12.65 -48.4,15.14z"/>
    <path class="fil9" d="M253.72 1778.47l-74.89 0 0 -24.16c0,-17.51 6.79,-30.15 17.55,-40.92 21.35,-21.35 57.34,-18.98 57.34,-18.98l0 84.06zm-21.12 -112.61c-19.36,2.83 -47.26,9.58 -62.97,25.3 -23.53,23.49 -20.74,39.82 -20.74,64.43l0 24.91 -84.46 0c-6.45,-0.77 -12.23,-3.19 -17.41,-7.29 -8.89,-7.09 -13.37,-17.85 -13.37,-32.35l0 -70.21 -29.93 15.72 0 54.49c0,22.43 7.2,40.09 21.57,52.97 10.85,9.78 23.15,15.29 36.88,16.6l88.88 0 0 -0.43 132.64 0 0 -160.55 -2.69 1.27c-15.33,7.36 -31.57,12.65 -48.4,15.14z"/>
    <path class="fil9" d="M222.41 1626.47c5.25,0 9.66,-1.65 13.18,-4.98 3.46,-3.46 5.18,-7.67 5.18,-12.73 0,-5.25 -1.72,-9.62 -5.18,-13.03 -3.52,-3.33 -7.93,-5.02 -13.18,-5.02 -4.94,0 -9.12,1.69 -12.57,5.02 -3.41,3.53 -5.14,7.9 -5.14,13.03 0,5.06 1.73,9.27 5.14,12.73 3.45,3.33 7.63,4.98 12.57,4.98z"/>
    <path class="fil9" d="M2120.11 1596.98l45.38 0c1.49,-3.72 3.71,-8.13 5.17,-12.08l-17.74 0c-8.13,0 -14.3,-5.43 -14.3,-14.56 0,-8.4 4.9,-15.3 14.3,-15.3 4.67,0 8.39,1.5 11.57,2.99 1.23,-3.71 2.23,-7.16 2.95,-10.84 -3.41,-1.99 -9.08,-3.49 -14.52,-3.49 -16.53,0 -27.14,11.34 -27.14,27.14 0,5.44 1.99,9.62 4.22,14.06l-15.06 0 5.17 12.08z"/>
    <path class="fil9" d="M765.7 1596.98l45.38 0c1.5,-3.72 3.68,-8.13 5.17,-12.08l-17.74 0c-8.13,0 -14.3,-5.43 -14.3,-14.56 0,-8.4 4.91,-15.3 14.3,-15.3 4.67,0 8.39,1.5 11.57,2.99 1.22,-3.71 2.22,-7.16 2.95,-10.84 -3.41,-1.99 -9.12,-3.49 -14.52,-3.49 -16.53,0 -27.14,11.34 -27.14,27.14 0,5.44 2,9.62 4.18,14.06l-15.02 0 5.17 12.08z"/>
    <path class="fil9" d="M89.37 2047.33l-24.03 0c-2.84,0 -3.34,-0.19 -3.34,-3.33l0 -5.49c0.35,-1.61 1.58,-1.61 3.34,-1.61l37.8 0c3.17,-0.15 3.17,1.23 3.17,3.72l0 37.07c-0.19,6.2 -0.19,6.93 -2.29,9.73 -5.83,7.58 -19.79,14.15 -39.02,14.15 -42.74,0 -61.28,-30.75 -61.28,-65 0,-38.15 23.49,-65.02 58.63,-65.02 29.32,0 44.35,17.83 44.35,26.49 0,5.33 -4.26,8.32 -8.13,8.32 -4.59,0 -6.74,-3.18 -10.43,-8.82 -3.56,-5.13 -10.42,-15.02 -26.32,-15.02 -19.78,0 -39.21,16.25 -39.21,51.2 0,31.43 15.71,56.34 43.8,56.34 6.52,0 13.77,-1.41 18.17,-4.4 4.61,-3 4.79,-6.71 4.79,-12.34l0 -25.99z"/>
    <path class="fil9" d="M151.52 2039.21l0 48.41 47.68 0c2.3,0 3.37,0 3.37,2.79l0 5.67c0,2.65 -1.22,2.84 -3.37,2.84l-61.44 0c-2.64,0 -3.56,-0.19 -3.56,-3.19l0 -117.28c0,-3.02 0.57,-4.24 3.56,-4.24l61.44 0c1.95,0 3.37,0.18 3.37,2.64 0,2.3 0,6.21 -0.19,6.71 -0.15,1.61 -0.88,1.96 -3.18,1.96l-47.68 0 0 42.53 40.29 0c1.94,0 3.32,0 3.32,2.68 0,2.31 0,6.37 -0.15,6.87 -0.34,1.45 -1.23,1.61 -3.17,1.61l-40.29 0z"/>
    <path class="fil9" d="M310.65 2068.87l0 -91.3c0,-2.29 0.35,-2.98 1.76,-3.36l9.2 0c2.3,0 2.64,0.72 2.64,3.18l0 118.34c0,3 -0.72,3.19 -3.02,3.19l-6.67 0c-1.8,-0.19 -2.3,-0.54 -3.91,-2.49l-70.49 -97.85 0 96.97c0,1.95 -0.15,2.99 -1.56,3.18 -0.39,0.19 -6.21,0.19 -9.2,0.19 -2.49,0 -2.99,-0.92 -2.99,-3.37l0 -117.98c0,-2.83 0.5,-3.36 3.34,-3.36l10.26 0c2.31,0 2.46,0 4.22,2.64l66.42 92.02z"/>
    <path class="fil9" d="M372.45 2039.21l0 48.41 47.71 0c2.26,0 3.34,0 3.34,2.79l0 5.67c0,2.65 -1.23,2.84 -3.34,2.84l-61.48 0c-2.64,0 -3.56,-0.19 -3.56,-3.19l0 -117.28c0,-3.02 0.57,-4.24 3.56,-4.24l61.48 0c1.91,0 3.34,0.18 3.34,2.64 0,2.3 0,6.21 -0.2,6.71 -0.15,1.61 -0.88,1.96 -3.14,1.96l-47.71 0 0 42.53 40.27 0c1.96,0 3.34,0 3.34,2.68 0,2.31 0,6.37 -0.16,6.87 -0.34,1.45 -1.22,1.61 -3.18,1.61l-40.27 0z"/>
    <path class="fil9" d="M464.27 2034.44c10.28,0.15 11.51,0.15 14.15,0 15.37,-1.43 26.33,-10.09 26.33,-25.96 0,-25.64 -21.59,-25.64 -29.17,-25.64 -5.1,0 -7.78,0.39 -11.31,0.89l0 50.71zm-16.94 -53.51c0,-3.71 0.54,-4.59 2.8,-5.47 3.91,-1.43 18.2,-2.5 27.41,-2.5 9.69,0 24.37,0.54 34.07,8.85 1.76,1.42 10.61,8.82 10.61,24.53 0,16.79 -11.3,28.98 -30.93,33.92l35.87 53.69c0.7,1.23 1.23,2.11 1.23,3.18 0,1.76 -1.76,1.76 -2.83,1.76l-12.69 0c-3.37,0 -3.37,0 -5.13,-2.83l-29.52 -47.14c-1.56,-2.49 -4.4,-6.51 -9.16,-6.51 -4.94,0 -4.79,4.4 -4.79,6.36l0 46.41c0,3.03 -0.68,3.71 -3.33,3.71l-10.24 0c-2.49,0 -3.37,-0.18 -3.37,-2.98l0 -114.98z"/>
    <path class="fil9" d="M1386.8 2035.71c10.23,0.19 11.46,0.19 14.15,0 15.36,-1.43 26.29,-10.04 26.29,-25.95 0,-25.6 -21.55,-25.6 -29.13,-25.6 -5.14,0 -7.79,0.34 -11.31,0.88l0 50.67zm-16.94 -53.51c0,-3.71 0.49,-4.59 2.8,-5.47 3.86,-1.43 18.2,-2.5 27.41,-2.5 9.69,0 24.33,0.57 34.07,8.85 1.76,1.42 10.57,8.82 10.57,24.58 0,16.74 -11.3,28.93 -30.89,33.87l35.87 53.7c0.69,1.22 1.23,2.14 1.23,3.17 0,1.78 -1.8,1.78 -2.84,1.78l-12.72 0c-3.33,0 -3.33,0 -5.14,-2.81l-29.47 -47.18c-1.61,-2.49 -4.41,-6.51 -9.16,-6.51 -4.99,0 -4.79,4.4 -4.79,6.36l0 46.41c0,3.03 -0.73,3.73 -3.38,3.73l-10.22 0c-2.46,0 -3.34,-0.17 -3.34,-3l0 -114.98z"/>
    <path class="fil9" d="M1977.07 2036.96c10.28,0.19 11.51,0.19 14.15,0 15.37,-1.42 26.33,-10.08 26.33,-25.95 0,-25.6 -21.59,-25.6 -29.17,-25.6 -5.09,0 -7.78,0.34 -11.31,0.89l0 50.66zm-16.94 -53.51c0,-3.71 0.54,-4.59 2.81,-5.47 3.9,-1.43 18.19,-2.49 27.4,-2.49 9.69,0 24.38,0.53 34.07,8.85 1.76,1.41 10.61,8.81 10.61,24.57 0,16.75 -11.3,28.93 -30.93,33.87l35.87 53.7c0.7,1.23 1.23,2.11 1.23,3.19 0,1.76 -1.76,1.76 -2.83,1.76l-12.69 0c-3.37,0 -3.37,0 -5.13,-2.84l-29.52 -47.14c-1.56,-2.5 -4.4,-6.52 -9.16,-6.52 -4.94,0 -4.79,4.41 -4.79,6.37l0 46.41c0,3.02 -0.68,3.72 -3.33,3.72l-10.24 0c-2.49,0 -3.37,-0.16 -3.37,-2.99l0 -114.99z"/>
    <path class="fil9" d="M601.31 2039.73l-15.18 -42.2 -15.36 42.2 30.54 0zm3.72 10.08l-37.98 0 -17.14 46.26c-1.06,2.83 -1.56,2.83 -3.87,2.83l-8.31 0c-1.22,0 -2.8,0 -2.8,-1.6l0.88 -2.81 45.73 -117.66c0.88,-2.25 1.41,-2.6 3.37,-2.6l7.59 0c1.23,0.15 1.56,0.35 2.46,2.26l45.91 118c0.38,1.08 0.73,1.93 0.73,2.81 0,1.6 -1.08,1.6 -2.49,1.6l-12.19 0c-2.99,0 -3.34,0 -4.41,-2.64l-17.48 -46.45z"/>
    <path class="fil9" d="M848.73 2041.55l-15.18 -42.2 -15.37 42.2 30.55 0zm3.72 10.07l-37.98 0 -17.14 46.26c-1.06,2.84 -1.61,2.84 -3.86,2.84l-8.33 0c-1.21,0 -2.83,0 -2.83,-1.61l0.89 -2.79 45.76 -117.63c0.88,-2.3 1.41,-2.64 3.33,-2.64l7.63 0c1.23,0.15 1.56,0.34 2.44,2.29l45.93 117.98c0.38,1.06 0.73,1.91 0.73,2.79 0,1.61 -1.08,1.61 -2.5,1.61l-12.18 0c-3,0 -3.34,0 -4.41,-2.64l-17.48 -46.46z"/>
    <path class="fil9" d="M674.43 2087.25l46.45 0c2.65,0 3.03,0.88 3.03,3.18l0 6.9c-0.38,1.56 -1.6,1.56 -3.18,1.56l-60.79 0c-2.64,0 -2.98,-1.06 -2.98,-2.98l0 -118.69c0,-2.84 0.88,-2.99 2.98,-3.19l11.31 0c2.64,0 3.02,0.69 3.18,3.19l0 110.03z"/>
    <path class="fil9" d="M1109.18 1976.03l-41.09 0 -11.49 0 -41.97 0c-1.58,0 -2.84,0 -3.19,1.61l0 6.85c0,2.31 0.35,3.19 2.99,3.19l39.17 0 0 110.03c0,2.85 0.89,3 3,3.18l0.18 0 11.11 0 0.2 0c2.11,-0.18 2.99,-0.33 2.99,-3.18l0 -110.03 38.28 0c2.65,0 3,-0.88 3,-3.19l0 -6.85c-0.35,-1.61 -1.57,-1.61 -3.18,-1.61z"/>
    <path class="fil9" d="M1594.11 1976.03l-41.08 0 -11.5 0 -41.97 0c-1.61,0 -2.84,0 -3.17,1.61l0 6.85c0,2.31 0.33,3.19 2.98,3.19l39.17 0 0 110.03c0,2.85 0.88,3 2.99,3.18l0.19 0 11.12 0 0.19 0c2.11,-0.18 2.99,-0.33 2.99,-3.18l0 -110.03 38.24 0c2.69,0 3.03,-0.88 3.03,-3.19l0 -6.85c-0.34,-1.61 -1.6,-1.61 -3.18,-1.61z"/>
    <path class="fil9" d="M1137.53 2087.87c3.41,-2.08 6.93,-3.91 10.5,-5.67l0 -102.99c-0.19,-2.45 -0.53,-3.18 -3.19,-3.18l-11.29 0c-2.11,0.19 -2.99,0.35 -2.99,3.18l0 112.68c2.26,-1.42 4.59,-2.76 6.97,-4.02z"/>
    <path class="fil9" d="M1141.03 1989.07c-3.41,2.07 -6.94,3.91 -10.46,5.67l0 102.99c0.15,2.45 0.49,3.17 3.14,3.17l11.31 0c2.14,-0.18 3.02,-0.33 3.02,-3.17l0 -112.68c-2.29,1.41 -4.64,2.76 -7.01,4.02z"/>
    <path class="fil9" d="M1215.11 2087.87c3.42,-2.08 6.95,-3.91 10.47,-5.67l0 -102.99c-0.16,-2.45 -0.5,-3.18 -3.19,-3.18l-11.26 0c-2.14,0.19 -3.02,0.35 -3.02,3.18l0 112.68c2.29,-1.42 4.62,-2.76 7,-4.02z"/>
    <path class="fil9" d="M1218.6 1989.07c-3.41,2.07 -6.9,3.91 -10.47,5.67l0 102.99c0.16,2.45 0.5,3.17 3.18,3.17l11.27 0c2.15,-0.18 3.03,-0.33 3.03,-3.17l0 -112.68c-2.3,1.41 -4.64,2.76 -7.01,4.02z"/>
    <path class="fil9" d="M1204.84 2041.85l-60.82 0c-0.92,2.91 -0.81,5.82 0.23,8.73l61.05 0c6.67,0 7.55,-0.68 7.55,-2.37l0 -5.18c-0.88,-1.18 -4.03,-1.18 -8.01,-1.18z"/>
    <path class="fil9" d="M1482.39 2097.41c0,3.18 -0.89,3.53 -3.53,3.53l-10.61 0c-2.11,0 -3.38,-0.35 -3.38,-3.53l0 -117.62c0,-2.85 0.73,-3.73 3.38,-3.53l10.61 0c2.46,0 3.53,0.35 3.53,3.18l0 117.97z"/>
    <path class="fil9" d="M1657.64 2097.41c0,3.18 -0.88,3.53 -3.52,3.53l-10.61 0c-2.11,0 -3.34,-0.35 -3.34,-3.53l0 -52.66c0,-2.8 0.69,-3.72 3.34,-3.52l10.61 0c2.46,0 3.52,0.33 3.52,3.17l0 53.01z"/>
    <path class="fil9" d="M1767.61 2041.21l0 56.34c0,3.38 -1.08,3.38 -3.53,3.38l-10.07 0c-2.85,0 -3.73,0 -3.73,-3.19l0 -117.66c0,-3 0.73,-3.88 3.19,-4.06l60.93 0c2.5,0.18 3.38,0.18 3.38,2.49 0,2.49 0,6.02 -0.19,6.7 0,1.23 -0.2,2.5 -3.19,2.3l-46.79 0 0 42.55 39.36 0c2.49,0 3.37,0.19 3.37,3.03 0,2.11 0,5.67 -0.19,6.17 -0.15,1.76 -1.04,1.95 -3.18,1.95l-39.36 0z"/>
    <path class="fil9" d="M1876.13 1983.98c-5.64,0 -11.31,1.61 -16.25,4.4 -16.25,9.55 -21.54,28.79 -21.54,49.11 0,6.9 0.5,12.87 1.77,18.54 4.74,23.5 20.47,35.68 36.37,35.68 10.07,0 21.53,-5.13 29.16,-16.93 8.47,-13.27 8.82,-29.71 8.63,-39.4 -1.04,-41.71 -24.88,-51.4 -38.14,-51.4zm0.53 119.57c-32.34,0 -56.72,-26.47 -56.72,-65 0,-31.41 17.67,-65.15 56.88,-65.15 36.02,0 54.38,30.7 55.84,61.44 1.77,38.52 -22.26,68.71 -56,68.71z"/>
    <path class="fil9" d="M1297.5 1984.09c-5.64,0 -11.31,1.62 -16.26,4.41 -16.25,9.54 -21.54,28.78 -21.54,49.1 0,6.9 0.54,12.92 1.77,18.55 4.79,23.49 20.5,35.68 36.37,35.68 10.08,0 21.58,-5.09 29.16,-16.94 8.48,-13.26 8.83,-29.67 8.66,-39.4 -1.06,-41.7 -24.91,-51.4 -38.16,-51.4zm0.53 119.58c-32.34,0 -56.68,-26.48 -56.68,-65 0,-31.43 17.67,-65.15 56.87,-65.15 35.99,0 54.39,30.69 55.8,61.44 1.77,38.51 -22.26,68.71 -55.99,68.71z"/>
    <path class="fil9" d="M993.26 2057.83l0 -0.04 0 -26.48 0 -26.99 0 -26.21c0,-1.84 -0.88,-1.96 -2.99,-2.07l-11.49 0c-2.11,0.11 -2.99,0.23 -2.99,2.07l0 26.48 0 26.99 0 21.58c-0.08,0.03 -0.12,0.07 -0.15,0.07 0.03,0.65 0.07,1.26 0.1,1.91 0.16,6.67 -0.1,18.02 -7.24,27.18 -6.36,8.16 -16.02,11.68 -24.49,11.68 -13.34,0 -26.52,-8.38 -30.55,-24.59 -1.03,-3.91 -1.46,-8.05 -1.46,-12.81l0 0 0 -0.26 0 -0.04 0 -24.99 0 -26.99 0 -26.21c0,-1.84 -0.91,-1.96 -3.02,-2.07l-11.5 0c-2.11,0.11 -2.99,0.23 -2.99,2.07l0 26.48 0 26.99 0 26.21c0,0.04 0.04,0.08 0.04,0.11 0,0.2 -0.04,0.35 -0.04,0.55 0,28.08 21.35,47.4 49.72,47.4 28.77,0 49.47,-20.93 49.05,-48.02z"/>
    <path class="fil9" d="M2151.79 2041.77l-15.25 -42.35 -15.41 42.35 30.66 0zm3.71 10.11l-38.09 0 -17.2 46.46c-1.08,2.8 -1.58,2.8 -3.92,2.8l-8.32 0c-1.22,0 -2.83,0 -2.83,-1.57l0.88 -2.84 45.92 -118.05c0.88,-2.29 1.41,-2.64 3.37,-2.64l7.62 0c1.23,0.19 1.58,0.35 2.46,2.3l46.11 118.39c0.34,1.03 0.68,1.91 0.68,2.84 0,1.57 -1.07,1.57 -2.49,1.57l-12.22 0c-3,0 -3.33,0 -4.41,-2.65l-17.56 -46.61z"/>
    <path class="fil9" d="M2255.98 2010.59l-28.72 87.74c-0.88,2.64 -0.88,2.83 -3.52,2.83 -5.67,0 -6.4,0 -7.47,-2.83l-34.39 -116.98c-0.68,-2.3 -0.68,-2.49 -0.68,-3.03 0,-1.76 1.41,-2.3 2.99,-2.3l11.19 0c2.83,-0.15 3.33,0.35 4.06,3.53l24.3 90.22 29.39 -89.64c1.23,-3.76 1.42,-4.11 2.85,-4.11l4.05 0c1.07,0 1.27,0.54 2.15,3.18l30.51 90.57 24.95 -90.37c0.73,-2.65 1.26,-3.38 3.75,-3.38l9.2 0c0.88,0.2 1.96,0.35 1.96,1.96 0,0.69 0,0.88 -0.73,3.37l-34.38 116.98c-0.72,2.29 -1.07,2.83 -3.03,2.83l-5.09 0c-1.27,-0.19 -1.81,-0.72 -2.5,-2.68l-30.84 -87.89z"/>
    <path class="fil9" d="M2425.91 1999.42c-7.97,-11.15 -19.31,-15.78 -28.9,-15.78 -11.49,0 -23.03,6.2 -30.12,16.66 -4.95,7.1 -9.74,18.79 -9.74,37.56 0,37.75 20.05,55.11 39.86,55.11 11.89,0 23.23,-6.17 30.66,-17.51 7.29,-11.19 9.25,-24.84 8.86,-38.09 -0.34,-13.49 -2.64,-27.14 -10.62,-37.95zm-14.17 102.6c1.26,4.99 3.36,11.69 12.76,19.17 5.67,4.41 15.41,10.26 30.46,13.83 4.6,1.04 6.22,1.38 6.22,4.06 0,0.88 0,3.53 -4.41,3.53 -2.69,0 -14.18,-1.76 -23.96,-4.79 -14.52,-4.79 -32.76,-14.68 -42,-34.54 -33.66,-3.56 -51.94,-30.31 -51.94,-63.95 0,-39.71 23.62,-65.97 57.99,-65.97 36.48,0 58.1,28.55 58.1,65.07 0,33.31 -17.86,56.69 -43.22,63.44l0 0.15z"/>
    <path class="fil9" d="M2528.33 2041.77l-15.25 -42.35 -15.41 42.35 30.66 0zm3.73 10.11l-38.1 0 -17.21 46.46c-1.08,2.8 -1.58,2.8 -3.87,2.8l-8.36 0c-1.22,0 -2.83,0 -2.83,-1.57l0.91 -2.84 45.88 -118.05c0.88,-2.29 1.41,-2.64 3.37,-2.64l7.63 0c1.22,0.19 1.61,0.35 2.45,2.3l46.11 118.39c0.35,1.03 0.69,1.91 0.69,2.84 0,1.57 -1.07,1.57 -2.5,1.57l-12.22 0c-2.99,0 -3.33,0 -4.41,-2.65l-17.54 -46.61z"/>
    <path class="fil9" d="M2601.51 2041.25l0 56.52c0,3.38 -1.08,3.38 -3.53,3.38l-10.12 0c-2.83,0 -3.72,0 -3.72,-3.18l0 -118.04c0,-3 0.69,-3.91 3.18,-4.06l61.13 0c2.49,0.15 3.38,0.15 3.38,2.44 0,2.5 0,6.06 -0.16,6.75 0,1.27 -0.18,2.5 -3.22,2.3l-46.94 0 0 42.73 39.51 0c2.49,0 3.37,0.16 3.37,3 0,2.14 0,5.7 -0.18,6.2 -0.17,1.81 -1.08,1.96 -3.19,1.96l-39.51 0z"/>
    <path class="fil9" d="M1673.59 1977.54l-22.73 59.15 -25.64 -57.07c-0.69,-3.19 -1.22,-3.72 -4.06,-3.57l-11.16 0c-1.6,0 -3.02,0.53 -3.02,2.31 0,0.56 0,0.72 0.73,3.02l35.68 83.86c1.08,2.8 1.8,2.8 7.47,2.8 2.64,0 2.64,-0.16 3.52,-2.8l31.43 -86.5c0.43,-1.23 -0.5,-2.49 -1.83,-2.49l-8.58 0c-0.81,0 -1.58,0.49 -1.81,1.29z"/>
   </g>
  </g>
 </g>
</svg>
