<?xml version="1.0" encoding="UTF-8"?>
<!DOCTYPE svg PUBLIC "-//W3C//DTD SVG 1.1//EN" "http://www.w3.org/Graphics/SVG/1.1/DTD/svg11.dtd">
<!-- Creator: CorelDRAW 2018 (64-Bit) -->
<svg xmlns="http://www.w3.org/2000/svg" xml:space="preserve" width="3.06917cm" height="2.05342cm" version="1.1" style="shape-rendering:geometricPrecision; text-rendering:geometricPrecision; image-rendering:optimizeQuality; fill-rule:evenodd; clip-rule:evenodd"
viewBox="0 0 3069.18 2053.43"
 xmlns:xlink="http://www.w3.org/1999/xlink">
 <defs>
  <style type="text/css">
   <![CDATA[
    .fil11 {fill:#1A3A6B}
    .fil13 {fill:#1B3C71}
    .fil16 {fill:#23B4BC}
    .fil6 {fill:#27B5B8}
    .fil14 {fill:#283876}
    .fil15 {fill:#2886C4}
    .fil9 {fill:#2B85C3}
    .fil25 {fill:#3684B8}
    .fil27 {fill:#4DB0B1}
    .fil7 {fill:#58B35A}
    .fil24 {fill:#5AB264}
    .fil20 {fill:#6F787C}
    .fil17 {fill:#73B947}
    .fil22 {fill:#73B94B}
    .fil8 {fill:#74B64C}
    .fil28 {fill:#8CB372}
    .fil18 {fill:#A5A5A5}
    .fil19 {fill:#A6A6A6}
    .fil3 {fill:#A8A8A8}
    .fil31 {fill:#AACF92}
    .fil12 {fill:#ABABAB}
    .fil5 {fill:#ACACAC}
    .fil0 {fill:#B4D6AA}
    .fil29 {fill:#C9D457}
    .fil21 {fill:#CAD534}
    .fil10 {fill:#CCD636}
    .fil23 {fill:#CCD731}
    .fil26 {fill:#CED76E}
    .fil34 {fill:#D6F4CC}
    .fil30 {fill:#E7F5CC}
    .fil4 {fill:#EBFCE8}
    .fil33 {fill:#ECF0AC}
    .fil32 {fill:#F6F9B8}
    .fil2 {fill:#FAFCC9}
    .fil1 {fill:#FCFED9}
   ]]>
  </style>
 </defs>
 <g id="Layer_x0020_1">
  <metadata id="CorelCorpID_0Corel-Layer"/>
  <g id="_2194105826576">
   <g>
    <path class="fil0" d="M1559.99 920.55c-3.42,-3.21 -5.07,-3.42 -9.48,-4.44 2.24,2.61 -2.28,0.48 3.77,3.08 1.79,0.77 3.23,0.92 5.71,1.36z"/>
    <path class="fil0" d="M1140.15 569.67l3 -1.37 0.9 -3.44c-3.8,2.55 -2.13,1.08 -3.9,4.81z"/>
    <path class="fil0" d="M1117.86 726.65l5.78 -5.8c-3.78,1.72 -0.34,-1.4 -3.71,2.14 -2.71,2.84 -0.63,0.54 -2.07,3.66z"/>
   </g>
   <g>
    <path class="fil1" d="M1092.47 711.38c-7.34,4.08 -12.38,14 -18.26,15.61 -2.59,-1.91 -7.18,-6.81 -9.96,-9.44 -3.15,-2.98 -7,-8.67 -11.96,-9.36 3.2,10.08 6.16,2.92 6.89,11.87 6.96,1.3 3.46,1.1 7.03,5.32l6 4.54c2.19,1.15 5.99,-0.73 7.89,-1.86 0.24,-0.15 0.55,-0.34 0.78,-0.5l4.01 -4.33c2.25,-2.73 6.57,-6.56 7.58,-11.85z"/>
    <path class="fil1" d="M1134.67 672.83c3.21,0.76 2.86,1.8 2.86,-0.54 1.84,-1.65 3.19,-2.5 6.95,-2.8 0.51,-7.56 -0.94,-5.04 4.35,-8.16l1.06 -4.34c-3.75,1.72 -1.76,0.25 -4.86,3.32 -1,0.99 -2.31,2.42 -3.5,3.76 -3.12,3.53 -5.02,4.38 -6.86,8.76z"/>
    <path class="fil1" d="M1140.58 633.56c-0.81,-2.81 -1.4,-3.82 -2.85,-5.38 -2.58,-2.78 -1.39,-0.45 -3.85,-4.02l-4.24 -1.43c0.92,4.6 7.02,9.26 10.94,10.83z"/>
   </g>
   <g>
    <path class="fil2" d="M925.37 749.17c-6.15,1.7 -18.13,-0.51 -18.54,-1.48 -0.16,-0.38 -0.54,-0.34 -0.8,-0.52 -6.32,0.88 -18.41,-1.01 -23.69,-2.56l2.34 -27.32 0.91 -11.72c-3.27,4.61 -2.9,12.46 -3.78,21.4 -0.77,7.81 -3.73,12.37 -0.3,20.83l38.11 4.09c6.89,-0.1 4.29,-0.3 5.75,-2.72z"/>
    <path class="fil2" d="M818.55 1088.23l-6.97 -4.63c-1.96,-1.03 -4.76,-2.25 -6.72,-3.13 -4.85,-2.15 -9.43,-3.3 -13.41,-6.3l1.24 -7.13c-3.16,1.64 -2.94,-0.1 -4.61,7.17 6.64,9.15 7.88,1.39 12.09,10.37 5.06,-2.36 10.97,1.45 13.41,4.19l4.97 -0.54z"/>
    <path class="fil2" d="M1169.2 1511.44c16.15,-5.68 4.25,-5.07 13.28,-12.32 7.17,-5.75 4.3,-11.53 -4.01,-13.8 2.49,5 3.08,2.59 5.48,7.85l-11.38 13.08c-2.26,2.11 -2.7,1.54 -3.37,5.19z"/>
    <path class="fil2" d="M1385.17 1158.24c-1.12,-4.21 -0.77,-3.95 -3.43,-7.94 -2.02,-3.04 -2.73,-4.09 -2.56,-7.89 5.07,-3.34 11.37,-3.89 14.28,-9.19 -5.01,0.6 -14.75,6.71 -17.18,9.19 2.48,16.02 0.26,10.33 6.74,14.32 0.35,0.22 1.82,1.28 2.15,1.51z"/>
    <path class="fil2" d="M1188.75 1336.06c10.5,-3.63 7.6,-2.59 12.71,-11.63 1.97,-3.47 -0.32,3.01 1.3,-3.24 -3.99,1.7 -5.18,3.81 -7.64,6.66 -2.76,3.2 -5.52,3.91 -6.37,8.21z"/>
   </g>
   <g>
    <path class="fil3" d="M91.75 1623.29c6.83,1.31 14.27,1.31 21.15,0l-0.24 -18.72c-5.29,-1.72 -15.43,-1.72 -20.73,0l-0.18 18.72z"/>
    <polygon class="fil3" points="57.53,1624.14 77.29,1624.06 77.82,1603.51 57.93,1603.46 "/>
   </g>
   <g>
    <path class="fil4" d="M1382.9 1408.26c-2.01,1.72 -1.59,-0.98 -3.13,2.29 -1.82,-4.57 -3.6,12.96 -2.27,17.09 0.06,0.19 0.79,2.22 0.82,2.35l0.3 1.67c0.01,0.05 0.02,0.28 0.07,0.41 12.63,-1.24 22.8,-0.29 36.09,1.91 8.12,1.34 27.69,5.78 35.76,5.23 1.78,-7.29 2.2,-2.27 3.28,-7.07 0.53,-2.32 -0.11,-10.11 -0.01,-13.26 0.29,-9.16 3.82,-18.29 1.95,-26.05 -1.09,1.44 -0.84,0.39 -1.67,2.97 -0.96,2.95 -3.31,32.92 -5.55,39.76l-67.26 -8.65 1.62 -18.65z"/>
    <path class="fil4" d="M1373.82 915.72c4.62,-4.12 2.71,-4.64 6.08,-9.37 3.32,0.4 10.07,3.74 13.74,5.55 4.7,2.31 8.66,4.15 13.09,6.21l-4.75 13.27 6.16 -5.63c1.11,-1.91 1.94,-6.75 2.35,-8.81 -15.6,-6.77 -5.12,-4.64 -13.45,-8.16 -12.28,-5.2 -7.33,0.22 -15.09,-6.57 -0.2,-0.18 -0.52,-0.5 -0.83,-0.7 -4.15,1.97 -6.47,3 -7.3,14.21z"/>
   </g>
   <g>
    <path class="fil5" d="M1026.82 1269.08c1.19,2.2 17.65,17.5 20.59,19.55 3.36,-1.24 2.76,-1.44 5.5,-4.35 3.93,-4.19 13.59,-13.65 15.29,-17.64 -3.36,-4.01 -17.34,-17.69 -22.01,-19.52 -1.88,1.44 -2.98,2.45 -5.06,4.67 -3.45,3.67 -13.32,12.63 -14.31,17.29z"/>
    <path class="fil5" d="M1227.01 1282c0.76,-9.33 4.03,-21.16 2.49,-29.97l-29.72 -3.09c-0.14,5.08 -3.93,28.55 -2.51,29.81 1.71,1.5 26.4,3.78 29.74,3.25z"/>
    <path class="fil5" d="M1272.26 1243.15l30.36 3.6c0.27,-8.91 4.24,-22.25 2.7,-30.88 -8.94,-0.3 -22.14,-3.56 -29.48,-2.35l-3.58 29.63z"/>
    <path class="fil5" d="M1019.83 768.5c0.86,0.37 0.25,0.5 3.25,1.16l26.94 2.75c0.95,-5.53 3.94,-25.97 2.26,-29.21l-29.18 -4.26 -3.27 29.56z"/>
   </g>
   <g>
    <path class="fil6" d="M1248.06 717.02l7.66 42.68 42 -7.58c0.3,-5.26 -2.25,-15.37 -3.32,-20.98 -1.42,-7.37 -1.36,-15.74 -4.62,-21.23l-41.72 7.11z"/>
    <path class="fil6" d="M1326.79 1160.68c0.29,3.22 10.86,22.34 14.14,25.83 4.98,-0.53 21.33,-9.55 26.25,-13.65 -0.8,-3.19 -11.66,-23.09 -14.07,-26.29 -2.95,0.89 -23.01,11.65 -26.32,14.11z"/>
    <path class="fil6" d="M1377.65 1015.75c3.77,3.02 21.57,11.66 26.61,12.44 3.83,-3.62 12.17,-20.99 12.5,-27.38 -8.21,-3.2 -17.59,-9.2 -25.89,-11.79 -3.5,3.61 -11.45,21.08 -13.22,26.73z"/>
   </g>
   <g>
    <path class="fil7" d="M821.87 1163.12c3.79,3.11 32.31,16.11 37.98,18 3.23,-3.89 6.45,-12.76 9.1,-18.67 1.62,-3.58 3.11,-6.5 4.65,-9.95l3.25 -7.76c0.15,-1.93 -0.36,-2.45 -0.55,-3.03 -2.92,-2.78 -33.79,-16.17 -37.15,-16.76 -0.2,0.26 -0.5,0.32 -0.58,0.78l-8.43 17.4c-2.4,5.2 -7.52,15.1 -8.27,19.99z"/>
    <path class="fil7" d="M1392.38 1210.62l14.46 27.92c2.3,4.01 2.76,6.08 5.95,8.91 4.76,-0.92 33.8,-16.87 36.8,-19.78 -0.92,-4.48 -6.71,-14.07 -9.39,-18.89 -3.28,-5.9 -6.86,-13.48 -10.36,-18.38 -3.53,0.76 -35.21,18.17 -37.46,20.22z"/>
    <path class="fil7" d="M1190.7 753.89c2.86,5.08 9.89,10.77 14.55,15.15 0.72,0.68 1.6,1.53 2.51,2.29l4.07 2.72c5.07,-3.14 18.12,-16.01 19.94,-22.01 -5.78,-5.01 -14.94,-15.97 -21.16,-19.32 -4.34,3.26 -17.71,16.77 -19.91,21.17z"/>
   </g>
   <g>
    <path class="fil8" d="M1319.92 1315.42c12.42,2.01 30.36,5.48 43.28,5.04l5 -41.94 -43.07 -5.71 -5.21 42.61z"/>
    <path class="fil8" d="M1293.58 1277.22l0.06 -6.32c-1.97,-0.32 -1.52,0 -3.33,-0.69 -4.06,-1.55 -2.69,-1.4 -4.07,-2.38l-33.98 -3.63 -5.58 42.76c9.3,0.9 36.79,6.14 43.62,4.05l3.28 -33.79z"/>
    <path class="fil8" d="M837.67 1023.06c4.31,3.59 20.21,11.17 27.55,11.46 1.99,-4.78 10.61,-22.36 11.25,-26.08 -2.57,-2.57 -22.86,-12.01 -27.58,-11.82 -2.69,4.1 -10.93,21.99 -11.22,26.44z"/>
    <path class="fil8" d="M884.9 851.33c1.51,6.61 9.53,17.83 12.99,25.18 5.22,-0.17 24.08,-11.7 26.62,-14.22 -0.98,-4.83 -9.59,-19.07 -13.51,-25.14 -5.81,0 -8.51,3.05 -13.23,5.85 -1.98,1.17 -4.44,2.51 -6.21,3.47 -1.14,0.63 -2.01,1.04 -3.1,1.75 -2.9,1.89 -1.53,0.75 -3.56,3.11z"/>
    <path class="fil8" d="M1373.82 915.72c-0.29,5.98 -5.29,9.58 -5.53,17.21 3.06,2.93 20.28,11.53 26.23,11.98l7.46 -13.53 4.75 -13.27c-4.43,-2.06 -8.39,-3.9 -13.09,-6.21 -3.67,-1.81 -10.42,-5.15 -13.74,-5.55 -3.37,4.73 -1.46,5.25 -6.08,9.37z"/>
    <path class="fil8" d="M952.33 1220.42c-0.4,7.68 3.44,21.93 4.59,29.52 8.43,0.05 22.09,-3.16 29.68,-5.07 0,-7.28 -3.23,-22.12 -5.19,-29.22l-29.08 4.77z"/>
    <path class="fil8" d="M1123.64 720.85l-5.78 5.8c-2.68,2.97 -9.76,9.01 -9.47,11.41 1.1,1.95 17.01,17.46 20.62,19.83l3.05 -2.17c1.09,-0.84 1.82,-1.39 2.61,-2.13l15.02 -16.75c-1.36,-3.06 -11.95,-13.06 -15.61,-16.05 -4.76,-3.89 -2.81,-3.39 -6.29,-4.48 -2.14,1.91 -2.23,2.61 -4.15,4.54z"/>
   </g>
   <g>
    <path class="fil9" d="M752.6 901.26c0.34,4.46 16.29,32.61 20.78,37.01 7.53,-1.68 28.03,-15.93 36.46,-19.85 -0.81,-5.57 -16.46,-31.72 -20.51,-37.72 -6.33,2.09 -12.31,6.47 -18.27,9.77 -6.03,3.36 -12.48,6.48 -18.46,10.79z"/>
    <path class="fil9" d="M883.55 1217.2c-0.86,4.62 5.8,34.83 7.31,41.55l41.44 -7.52c1.36,-4.8 -4.12,-28.45 -5.88,-36.49 0,-0.02 -0.65,-2.8 -0.71,-2.99 -0.88,-2.59 -0.77,-1.84 -1.31,-2.78 -7.11,0.34 -36.45,5.79 -40.85,8.23z"/>
   </g>
   <g>
    <path class="fil10" d="M725.87 1222.8l23.99 10.23c3.41,1.81 7.84,4.04 11.52,5.51 5.13,2.05 7.13,4.73 13.22,5.06 5.81,-5.34 12.42,-26.03 17.36,-35.22 2.22,-4.14 4.73,-8.59 4.9,-13.6 -3.97,-3.18 -45.62,-22.35 -49.76,-22.53l-16.39 36.76c-2.06,5.39 -4.75,7.46 -4.84,13.79z"/>
    <path class="fil10" d="M817.31 864.73c0.22,6.03 4.6,11.76 9.03,18.84 3.74,5.98 6.17,12.21 10.37,17.74 4.45,-0.34 15.85,-7.05 19.91,-9.43 22.84,-13.4 21.7,-6.3 3.15,-36.79 -1.84,-3.02 -2.88,-6.69 -4.79,-9.38 -7.94,-0.95 -32.77,14.21 -37.67,19.02z"/>
    <path class="fil10" d="M1460.96 1018.81c6.72,3.31 32.66,17 38.3,17.2 3.96,-8.46 15.91,-31.22 16.17,-38.98 -2.8,-1.74 -34.43,-17.1 -37.75,-17.39 -3.05,5.8 -16.4,31.78 -16.72,39.17z"/>
    <path class="fil10" d="M898.05 1289.78c-0.48,4.92 6.26,37.31 8.17,41.19 6.75,-0.06 13.88,-2 20.21,-3.62 2.86,-0.73 8.16,-1.62 10.37,-1.99 7.12,-1.18 4.81,-0.28 10.5,-2.85 0.02,-4.01 -6.01,-40.98 -8.65,-41.7 -0.6,-0.16 -16.59,3.34 -20.16,4.03 -4.93,0.95 -16.47,2.71 -20.44,4.94z"/>
    <path class="fil10" d="M1188.75 1336.06c0.85,-4.3 3.61,-5.01 6.37,-8.21 2.46,-2.85 3.65,-4.96 7.64,-6.66 0.91,-1.72 1.48,-1.85 2.55,-4.61 -2.42,-3.53 -3.28,-4 -7.24,-6.99 -5.34,-4.04 -9.63,-10.12 -15.15,-14.13 -12.91,-9.38 -6.3,-10.37 -30.43,15.35 -2.52,2.69 -5.35,4.53 -6.68,8.2 3.03,5.17 17.44,18.34 23.47,22.96 1.98,1.52 -0.05,0.22 1.95,1.79 6.89,5.44 8.46,1.45 11.72,-2.59 2.36,-2.92 3.37,-2.76 5.8,-5.11z"/>
    <path class="fil10" d="M1440.27 904.92c2.26,1.91 15.47,8.59 18.53,9.9 6.19,2.68 16.6,8.1 20.97,7.78 4.02,-8.53 15.37,-31.63 15.33,-39.06l-18.21 -8.63c-5.88,-2.92 -12.76,-7.54 -19.04,-7.48l-17.58 37.49z"/>
    <path class="fil10" d="M1050.5 1352.17c-2.57,-1.26 -2.37,-0.69 -4.97,-3.27 -1.7,-1.69 -1.93,-2.17 -3.07,-4.86 -2.94,-0.69 -14.25,-11.99 -17.13,-15.16 -2.79,-3.06 -2.7,-3.82 -8.37,-3.14 -5.43,9.15 -25.89,25.92 -25.47,29.81 1.53,3.3 10.81,10.79 14.56,14.54 2.9,2.9 13.85,14.03 17,13.43l21.29 -22.55c3.57,-3.61 4.46,-3.06 6.16,-8.8z"/>
    <path class="fil10" d="M1046.3 701.5l4.62 1.42 1.69 4.37 -0.32 0.9c4.96,0.69 8.81,6.38 11.96,9.36 2.78,2.63 7.37,7.53 9.96,9.44 5.88,-1.61 10.92,-11.53 18.26,-15.61 3.1,-10.8 20.09,-8.58 4.63,-21.84 -3.73,-3.21 -4.47,-4.77 -7.82,-8.04 -3.19,-3.1 -12.51,-12.69 -16.29,-13.66 -11.96,13.38 -15.87,15.46 -28,30.03l1.31 3.63z"/>
    <path class="fil10" d="M1311.69 699.97l7.08 41.63c6.07,0.19 14.91,-1.62 20.64,-2.71l14.97 -2.84c5.66,-0.69 7.66,-1.15 5.55,-12.46 -0.56,-3.01 -1.55,-5.46 -2.23,-9.45 -0.9,-5.27 -2.07,-17.17 -4.59,-21.28l-41.42 7.11z"/>
    <path class="fil10" d="M1393.46 1133.22c-2.91,5.3 -9.21,5.85 -14.28,9.19 -0.17,3.8 0.54,4.85 2.56,7.89 2.66,3.99 2.31,3.73 3.43,7.94 2.77,3.07 3.84,6.11 5.86,9.5 1.95,3.25 1.14,2.21 2.83,5.87 1.19,2.58 2.56,3.9 4.31,5.61 5.3,-0.15 30.06,-14.27 36.45,-18.54 0.16,-6.38 -1.41,-5.41 -3.8,-9.42 -11.52,-19.28 -9.44,-33.32 -26.86,-22.62 -2.45,1.51 -7.81,4.5 -10.5,4.58z"/>
    <path class="fil10" d="M792.69 1067.04l-1.24 7.13c3.98,3 8.56,4.15 13.41,6.3 1.96,0.88 4.76,2.1 6.72,3.13l6.97 4.63c5.42,0.01 2.97,2.2 10.31,3.09l17.8 -37.64c-4.09,-3.49 -33.68,-17.01 -39.6,-17.64 -4.52,10.18 -9.62,21.22 -14.37,31z"/>
    <path class="fil10" d="M1122.78 623.07c-2.9,6.13 -0.43,4.86 -4.55,7.91 -1.87,1.38 -3.85,2.76 -5.8,5.13 -9.91,12.07 -9.13,3.43 -7.01,12.53 -0.95,0.03 -2.36,0.04 -3.24,0.25 -2.26,0.54 -1.69,0.6 -3.21,1.49l0.51 4.59c2.13,3.67 8.04,7.31 12.32,12.57 1.95,2.4 12.33,12.38 14.78,12.02 1.96,-0.29 3.78,-3.42 5.78,-5.11l2.31 -1.62c1.84,-4.38 3.74,-5.23 6.86,-8.76 1.19,-1.34 2.5,-2.77 3.5,-3.76 3.1,-3.07 1.11,-1.6 4.86,-3.32 1.2,-2.99 2.99,-2.81 4.79,-6.62 -1.57,-7.3 -12.82,-11.12 -14.1,-16.81 -3.92,-1.57 -10.02,-6.23 -10.94,-10.83 -2.75,-0.38 -0.82,-1.24 -6.46,-1.29l-0.4 1.63z"/>
   </g>
   <g>
    <path class="fil11" d="M713.61 822.91c4.37,11.32 20.22,34.14 26.53,48.01 10.75,-3.38 37.84,-22.54 48.69,-26.18 -1.35,-3.9 -23.38,-44.14 -27.63,-48.39l-47.59 26.56z"/>
    <path class="fil11" d="M1405.88 1052.69c5.5,12.81 14.38,24.53 19.91,37.76 3.53,-0.82 33.64,-16.51 38.38,-21.11 -2.17,-4.36 -17.02,-32.83 -20.93,-36.72l-37.36 20.07z"/>
    <path class="fil11" d="M848.73 1105.87c4.27,3.33 21.68,11.23 28.11,12.47l12.02 -27.67 -27.58 -12.11c-3.29,5.27 -11.05,21.5 -12.55,27.31z"/>
    <path class="fil11" d="M944.66 806.21l29.62 3.45c2.55,-6.64 3.34,-22.67 3.81,-30.38l-30.45 -2.99 -2.98 29.92z"/>
    <path class="fil11" d="M1108.82 1283.69l21.41 20.23c4.56,-2.92 16.15,-16.62 20.53,-21.45 -2.12,-3.75 -17.89,-18.56 -21.75,-20.57l-20.19 21.79z"/>
   </g>
   <g>
    <path class="fil12" d="M1151.65 600.44c2.15,5.16 38.21,37.3 39.48,37.82 2.24,-1.26 34.81,-34.36 37.37,-39.04 -1.61,-2.49 -34.05,-35.53 -40.26,-38.01 -4.54,6.4 -11.69,12.59 -18.06,19.49 -5.75,6.24 -13.13,12.79 -18.53,19.74z"/>
    <path class="fil12" d="M793.4 750.68l54.53 6.03 5.89 -54.79 -55.23 -6.01c-1.28,13.82 -6.4,42.85 -5.19,54.77z"/>
    <path class="fil12" d="M1050.8 1320.23c3.55,5.23 10.07,10.34 14.7,14.76 2.98,2.85 12.22,12.17 16.01,14.43 3.69,-1.97 11.23,-10.86 14.58,-14.6 3.09,-3.44 13.02,-13.29 14.35,-15.81 -0.67,-1.96 -25.37,-27.45 -31.36,-29.1 -3.87,2.58 -25.3,25.92 -28.28,30.32z"/>
    <path class="fil12" d="M1322.67 1250.38c6.83,1.3 36.38,5.24 42.62,4.14 1.57,-3.61 5.43,-37.82 4.51,-42.25 -11.74,-0.68 -32.33,-5.19 -42.27,-4l-4.86 42.11z"/>
    <path class="fil12" d="M1408.48 972.62c9.2,2.24 33.04,17.01 39.04,16.91 3.49,-5.54 16.56,-33.51 17.02,-39.02 -5.87,-2.41 -12.39,-5.7 -18.13,-8.49 -4.79,-2.32 -15.61,-8.25 -20.22,-8.25 -3.54,5.95 -5.89,11.55 -8.88,18.18 -3,6.66 -7.04,13.03 -8.83,20.67z"/>
    <path class="fil12" d="M811.61 1238.62c5.9,3.8 12.88,6.54 18.57,9.15 6.61,3.03 14.08,6.49 19.93,8.82 2.99,-2.75 16.95,-33.65 18.37,-38.62 -3.81,-2.84 -33.31,-16.4 -39.08,-17.42l-17.79 38.07z"/>
    <path class="fil12" d="M1224.57 1328.14l-5.82 42.07 42.83 5.23 5.3 -43.15c-6.9,-0.41 -37.56,-5.6 -42.31,-4.15z"/>
    <path class="fil12" d="M1394.22 780.01c0.12,6.43 5.27,36.97 7.46,40.93 1.9,1.9 7.26,0.52 9.71,-0.01 2.85,-0.62 6.81,-1.24 10.48,-1.96 7.35,-1.43 13.92,-2.65 21.41,-4.11l-7.18 -42.35 -41.88 7.5z"/>
    <path class="fil12" d="M844.51 924.84c3.66,5.42 11.63,19.91 14.51,25.96 9.83,-1.94 17.79,-10.35 27.32,-14.16l-11.04 -19.28c-2.29,-4.08 -1.28,-3.82 -4.49,-6.64 -5.5,1.66 -19.92,10.96 -26.3,14.12z"/>
    <path class="fil12" d="M893.92 1160.09l4.99 29.32c5.1,1.16 24.62,-3.44 29.5,-5.59 -0.06,-7.78 -3.55,-21.8 -5.58,-28.79l-28.91 5.06z"/>
    <path class="fil12" d="M1367.3 1087.61c1.71,5.73 10.33,21.69 15.04,25.92l24.08 -13.12c0.22,-0.14 0.59,-0.41 0.88,-0.63 -1.2,-5.85 -10.29,-19.86 -13.09,-26.51l-26.06 13.69c-0.2,0.14 -0.57,0.42 -0.85,0.65z"/>
    <path class="fil12" d="M1271.49 778.25l4.63 29.17 29.71 -5.52 -4.78 -28.94c-4.82,-1.17 -25.7,3 -29.56,5.29z"/>
   </g>
   <g>
    <path class="fil13" d="M1402.39 1268.51c-2.03,5.14 -7.52,49.71 -5.97,54.68l52.9 6.3c3.26,-6.52 7.55,-51.48 7.15,-55.13 -9.86,-1.25 -48.19,-7.07 -54.08,-5.85z"/>
    <polygon class="fil13" points="1281.32,616.32 1291.14,671.08 1345.36,661.07 1335.84,606.65 "/>
   </g>
   <g>
    <path class="fil14" d="M1541.03 872.26l62.74 29.22 29.07 -62.37c-2.83,-2.21 -57.28,-27.98 -61.71,-29.1l-30.1 62.25z"/>
    <path class="fil14" d="M1022.08 601.65c6.83,6.55 11.96,11.18 19.22,18.23l19.74 19.25c5.4,-4.55 13.87,-13.3 19.33,-19.11l18.96 -20.8c-2.31,-2.87 -36.1,-36.09 -39.74,-37.66 -5.51,4.58 -35.97,35.35 -37.51,40.09z"/>
    <path class="fil14" d="M737.89 1029.53l38.92 17.02 18.1 -39.62c-8.91,-3.06 -32.64,-16.3 -39.8,-16.69 -3.57,6.45 -16.24,33.07 -17.22,39.29z"/>
    <path class="fil14" d="M1442.3 1107.3c1.64,4.44 6.76,13.47 9.94,18.86 3.24,5.48 6.02,12.55 10.48,18.48 4.55,-0.98 34.73,-17.51 37.53,-20.5l-17.21 -32.44c-0.96,-1.75 -0.37,-0.91 -1.36,-2.26 -1.52,-2.09 -1.12,-1.3 -1.91,-2.15 -5.66,1.45 -31.19,16.32 -37.47,20.01z"/>
    <path class="fil14" d="M960.95 1270.33c-0.37,10.99 5.95,30.33 7.44,42.43 10.81,0.37 29.83,-6.03 42.32,-7.37l-7.7 -42.2c-9.77,-0.77 -30.03,6.37 -42.06,7.14z"/>
   </g>
   <g>
    <path class="fil15" d="M1544.66 1139.98c1.81,6.59 12.05,22.7 15.88,30.18l16.68 29.54c5.76,-1.46 57.07,-29.97 59.71,-32.93 -1.65,-8.02 -26.23,-46.05 -31.14,-59.12 -6.2,0.55 -24.9,11.74 -31.76,15.64 -8.32,4.74 -23.64,11.79 -29.37,16.69z"/>
    <path class="fil15" d="M811.17 1381.29c-0.32,6 11.21,64.03 13.36,67.69l66.83 -13.03 -12.89 -66.91c-9.88,-1.08 -53.43,10.29 -67.3,12.25z"/>
    <path class="fil15" d="M1369.99 588.02l11.84 67.53 66.77 -11.57c0.07,-0.65 0.29,-1.48 0.31,-1.31 0.02,0.17 0.28,-0.74 0.3,-0.98 0.46,-5.69 0.35,2.76 0.11,-2.03l-11.5 -63.28 -67.83 11.64z"/>
    <path class="fil15" d="M682.51 1099.78c2.08,2.02 45.26,21.61 49.46,22.55 3.19,-3.46 21.61,-44.02 23.03,-49.34 -3.73,-3.27 -45.26,-21.67 -49.83,-22.33 -3.41,3.63 -20.47,42.41 -22.66,49.12z"/>
    <path class="fil15" d="M1378.84 881.78c2.78,2.38 34.21,17.83 38.82,17.99 5.92,-11.78 12.66,-24.74 17.53,-37.48l-3.63 -2.95c-1.09,-0.6 -3.41,-1.45 -5.07,-2.23 -7.54,-3.51 -25.02,-13.56 -30.75,-12.72 -4.07,9.97 -15.4,29.82 -16.9,37.39z"/>
    <path class="fil15" d="M1104.92 1370.16c1.5,3.6 17.98,17.65 22.62,22.17 1.51,1.47 2.32,2.3 3.76,3.62 2.62,2.39 2.08,2.17 5.02,3.41 4.81,-4.48 10.23,-10.09 14.49,-14.79l13.98 -15.62c-2.31,-4.47 -27.79,-27.31 -30.91,-29.24l-28.96 30.45z"/>
    <path class="fil15" d="M1026.25 681.6l0.79 -4.44c-2.59,-2.64 -2.22,1.67 -2.49,-6.03 -0.1,-3.01 3.28,-12.81 0.98,-15.89 -3.07,-4.1 -32.27,-5.24 -37.36,-2.43 -1.23,5.62 0.48,4.54 -0.21,11.01 -0.44,4.11 -0.27,4.64 -0.35,8.5 -0.13,6.25 -3.18,10.88 -1.35,14.59 5.4,1.5 12.38,1.31 17.47,1.37 9.75,0.11 8.64,4.01 16.75,1.9 2.6,-4.44 0.8,-8.06 5.77,-8.58z"/>
   </g>
   <g>
    <path class="fil16" d="M614.71 860.7c0.68,3.85 28.41,55.72 34.44,60.04 8.52,-3.78 20.99,-11.92 29.25,-16.83 7.21,-4.29 24.45,-12.29 29.23,-17.26 -2.33,-5.83 -30.79,-55.56 -34.12,-58.68 -5.06,1.3 -50.07,28 -58.8,32.73z"/>
    <path class="fil16" d="M624.52 1189.89l61.99 27.95c4.63,-9.59 26.53,-55.47 27.72,-62.03l-7.01 -4.5c-3.12,-1.47 -4.94,-2.4 -7.49,-3.55l-46.93 -20.93c-3.12,3.53 -27.72,57.67 -28.28,63.06z"/>
    <path class="fil16" d="M1161.86 1420.1c1.52,2.73 36.37,35.55 40.23,37.02 4.65,-3.27 35.48,-37.06 36.85,-39.46 -5.86,-9.83 -30.67,-27.48 -39.19,-37.73 -4.34,2.53 -34.45,34.96 -37.89,40.17z"/>
    <path class="fil16" d="M1463.33 1180.73c1.28,8.72 20.62,39.4 25.3,48.94 7.68,-1.77 18.79,-9.31 25.42,-12.88 5.9,-3.18 19.42,-9.46 22.79,-13.48 -1.66,-6.04 -20.98,-40.75 -25.4,-46.68 -8.1,0.17 -38.16,20.47 -48.11,24.1z"/>
    <path class="fil16" d="M1459.08 830.45c5.46,4.05 44.81,22.74 50.97,23.27 3.67,-11.7 21.19,-42.2 22.04,-48.67 -3.1,-2.84 -44.55,-23.29 -49.88,-23.11l-23.13 48.51z"/>
    <path class="fil16" d="M895.26 672.19c13.57,0.55 45.19,6.49 55.55,4.65 0.37,-9.19 1.63,-18.17 2.53,-26.61 0.54,-5.01 1.08,-8.36 1.46,-13.23l0.91 -11.91c-0.89,-5.34 -21.08,-4.84 -26.4,-5.34 -8.89,-0.85 -18.57,-2.8 -28.15,-2.33l-5.9 54.77z"/>
    <path class="fil16" d="M1501.93 1058.38c0.61,3.69 22.59,43.51 25.34,47.47 5.48,-0.14 45.93,-23.23 48.66,-25.55 -4.2,-11.81 -22.93,-40.06 -25.08,-47.61 -6.49,0.9 -19.46,9.15 -24.82,12.28 -7.19,4.2 -17.26,8.43 -24.1,13.41z"/>
    <path class="fil16" d="M1292.42 1400.19l54.08 6.63 7.02 -54.64 -55.23 -7.11c-1.31,12.44 -7.34,45.39 -5.87,55.12z"/>
    <path class="fil16" d="M1386.76 691.67l9.25 54.47 54.43 -9.45c-0.08,-4.24 -8.72,-52.44 -9.67,-53.46 -1.98,-2.12 -47.38,7.31 -54.01,8.44z"/>
    <path class="fil16" d="M915.18 1362.2c-0.35,5.45 8.29,49.41 10.12,53.05 1.11,0.61 0.32,0.88 2.73,1.03l50.48 -10.8c0.12,-9.27 -7.35,-41.53 -9.49,-53.15l-53.84 9.87z"/>
    <path class="fil16" d="M760.22 1142.23c8.93,3.69 29.42,14.8 38.9,16.55l17.05 -38.14c-3.16,-2.8 -34.44,-17 -39.14,-17.42 -4.23,5 -6.36,12.76 -9.25,19.17 -2.45,5.43 -7.79,14.21 -7.56,19.84z"/>
    <path class="fil16" d="M1149.27 701.52c1.57,4.38 26.93,28.14 29.68,29.47 4.3,-2 12.12,-11.28 15.09,-14.35 4.72,-4.87 12.49,-11.45 14.4,-16.33 -2.11,-3.5 -27.61,-27.23 -30.71,-29.04 -5.32,5.37 -26.02,25.72 -28.46,30.25z"/>
    <path class="fil16" d="M789.4 956.07c1.48,3.95 17.25,32.28 20.52,36.22 4.47,-0.39 34.83,-18.19 37.39,-20.39l-20.09 -36.6c-5.86,0.23 -35.75,18.4 -37.82,20.77z"/>
    <path class="fil16" d="M896.5 813.17c5.93,0.83 20.4,3.24 26.68,1.49 1.35,-4.4 2.17,-20.75 2.76,-26.63 1.14,-11.41 6.6,-18.26 -10.05,-15.4 -5.17,0.98 -10.15,-0.65 -15.85,-1.01 -2.78,-0.17 -4.59,-0.2 -7.35,-0.12 -12.67,0.33 -4.88,0.94 -9.04,26.18 -3.56,21.57 9.95,6.43 12.85,15.49z"/>
   </g>
   <g>
    <path class="fil17" d="M798.23 591.91c-1.85,5.11 -7.61,61.04 -6.44,66.72l66.85 6.95c2.77,-7.83 7.92,-59.45 7.97,-68.24 -10.07,-2.05 -23.29,-3.16 -33.53,-4.09l-25.56 -2.6c-9.49,-0.83 -7.39,0.02 -9.29,1.26z"/>
    <path class="fil17" d="M1140.15 569.67c1.77,-3.73 0.1,-2.26 3.9,-4.81 1.75,-1.04 29.35,-30.66 31.45,-33.85 -1.67,-4.39 -44.77,-43.69 -48.92,-47.06 -2.92,1.16 -31.23,31.2 -35.22,36.29 -3.4,4.34 -2.04,2.51 -5.86,6.15 -1.01,0.97 -2.07,2.35 -2.86,3.3 -1.93,2.31 -1.48,1.59 -2.87,3.76 1.7,3.56 2.56,3.74 5.33,6.18 2.77,2.45 4.17,3.95 6.28,5.94 4.61,4.34 7.59,7.24 12.55,11.72l24.39 22.95c4,-1.74 3.11,-0.99 6.81,-5.41 2.05,-2.46 2.48,-2.92 5.02,-5.16z"/>
    <path class="fil17" d="M1382.9 1408.26l-1.62 18.65 67.26 8.65c2.24,-6.84 4.59,-36.81 5.55,-39.76 0.83,-2.58 0.58,-1.53 1.67,-2.97 -1.78,-6.4 1.31,-17.66 1.46,-25.66 -19.37,-1.75 -48.93,-8.29 -68.16,-7.42l-6.16 48.51z"/>
    <path class="fil17" d="M1032.76 1422.53c3.05,4.8 31.79,31.74 40.73,36.85 3.92,-5.27 12.55,-13.75 17.48,-18.86 3.82,-3.98 14.95,-15.15 18.02,-20.42 -1.35,-4 -0.66,-2.62 -3.86,-5.43 -6.51,-5.73 -29.98,-29.56 -35.8,-31.76 -4.99,2.94 -20.68,21.55 -27.75,28.91 -3.85,4.01 -7.46,6.41 -8.82,10.71z"/>
    <path class="fil17" d="M677.63 946.33c-0.05,4.15 20.92,40.5 25.11,47.15 5.74,0.76 16.86,-7.23 24.59,-11.5 7.07,-3.92 16.86,-10.26 24.26,-13.49 -1.25,-6.11 -23.13,-43.87 -26.93,-48.46 -5.41,1.77 -17.67,9.39 -23.15,12.9 -7.94,5.09 -15.01,8.1 -23.88,13.4z"/>
    <path class="fil17" d="M1559.99 920.55c-2.48,-0.44 -3.92,-0.59 -5.71,-1.36 -6.05,-2.6 -1.53,-0.47 -3.77,-3.08 -7.02,-2.4 -20.18,-12.46 -28.1,-10.94 -3.61,7.18 -21.12,43.02 -21.78,48.46 5.76,4.49 16.33,7.95 23.82,11.46 6.16,2.88 18.27,10.53 26.27,10.79 4,-9.66 21.49,-41.71 21.78,-49.04l-12.51 -6.29z"/>
    <path class="fil17" d="M808.88 1288.59c-0.1,8.52 2.76,18.14 4.44,27.15 0.97,5.18 3.6,22.51 6.34,26.85l52.15 -9.87c0.71,-1.37 1.61,-0.89 0.77,-5.85l-10.07 -48.23c-6.93,0.02 -45.33,7.95 -53.63,9.95z"/>
    <path class="fil17" d="M1218.33 657.03c-2.04,3.71 -1.98,3.81 -5.48,5.91 -2.32,3.4 -2.19,1.38 -3.51,5.7 5.32,6.05 9.51,9.54 14.92,14.45 17.6,15.96 11.53,20.06 30.44,-0.79 4.94,-5.44 11.43,-9.59 13.58,-16.1 -2.17,-3.21 -4.21,-4.82 -6.58,-7.25l-23.08 -21.28c-3.78,1.71 -7.67,6.22 -10.44,9.51 -1.73,2.06 -7.38,8.36 -9.85,9.85z"/>
    <path class="fil17" d="M1325.19 772.11c-0.03,12.24 5.31,28.98 6.94,41.91l42.12 -7.75 -6.75 -40.99 -42.31 6.83z"/>
    <path class="fil17" d="M964.39 754.44c2.76,-3.58 6.77,-0.98 10.44,-0.24l20.12 1.81c1.2,-4.83 1.42,-2.87 2.22,-7.02 2.02,-10.4 0.7,-24.49 3.19,-29.2 -0.25,-0.21 -0.66,-0.84 -0.79,-0.61l-5.74 -5.07c-8.11,-1.32 -26.01,-3.39 -34.24,-2.77l-4.75 42.32 9.55 0.78z"/>
   </g>
   <g>
    <polygon class="fil18" points="360.54,107.18 360.53,429.23 386.08,429.23 397.22,429.06 397.21,106.22 360.54,105.6 "/>
    <polygon class="fil18" points="1915.29,1780.82 1935.03,1780.8 1935.26,1603.93 1915.27,1603.61 "/>
    <polygon class="fil18" points="166.85,2051.11 191.78,2051.18 191.5,1909.9 166.84,1909.99 "/>
    <path class="fil18" d="M1808.14 71.78c10.51,0.34 25.41,2.03 34.12,-0.65l0.5 -33c-10.03,-1.85 -24.44,-1.36 -34.48,-0.7l-0.14 34.35z"/>
    <polygon class="fil18" points="2525.77,499.91 2560.41,500.06 2560.26,465.26 2525.65,465.28 "/>
    <polygon class="fil18" points="159.46,1824.38 179.88,1824.35 180.26,1803.54 159.75,1803.8 "/>
    <polygon class="fil18" points="194.44,1824.43 214.65,1824.43 214.88,1803.74 194.39,1803.74 "/>
    <polygon class="fil18" points="1311.75,1623.56 1332.4,1624.08 1332.47,1604.11 1311.68,1603.59 "/>
   </g>
   <g>
    <path class="fil19" d="M2414.11 1031.58c-1.98,-24.01 2.02,-58.36 8.2,-82.1 0.78,-2.97 2.25,-8.11 3.02,-10.94 7.76,-28.21 28.58,-66.18 48.43,-88.2 38.93,-43.16 90.12,-73.65 165.04,-77.77 178.93,-9.82 292.77,170.84 233.65,338.95 -4.63,13.18 -11.49,27.99 -18.96,40.48 -60.21,100.57 -180.32,140.44 -292.72,95.92 -30.22,-11.97 -51.29,-28.4 -72.75,-48.01 -46.53,-42.55 -68.6,-104.08 -73.91,-168.33zm655.07 11.17l0 -49.32c-1.43,-3.49 -3.8,-36.46 -5.22,-44.6 -2.34,-13.41 -5.65,-27.78 -9.09,-41.52 -17.17,-68.63 -65.04,-144.94 -116,-188.79 -38.78,-33.37 -73.29,-56.26 -126.24,-76.97 -81.72,-31.96 -175.29,-37.14 -264.19,-17.21 -50.38,11.29 -99,32.81 -140.72,61.13 -10.7,7.25 -20.39,14.92 -29.13,22.13 -15.87,13.09 -37.62,33.43 -51.18,50.03 -16.31,19.98 -29.55,38.45 -42.08,60.18 -33.98,58.92 -52.62,128.33 -52.51,201.59 0.27,170.48 94.3,305.02 238.88,369.83 102.28,45.85 235.39,47.62 340.11,6.36 89.97,-35.45 171.91,-105.22 214.14,-192.97 20.43,-42.46 29.51,-68.67 37.59,-114.91l5.64 -44.96z"/>
    <path class="fil19" d="M1644.94 773.86c0.3,0.11 0.75,-0.05 0.92,0.3 0.18,0.36 0.7,0.23 0.96,0.26 1.25,0.17 2.12,0.24 3.4,0.28 1.89,0.06 4.21,-0.06 6.16,-0.07l253.34 -0.05c10.73,0.01 21.72,-9.2 35.39,-18.14 11.27,-7.37 21.52,-14.35 32.73,-20.99 11.55,-6.85 22.85,-16.5 33.62,-20.91 -2.65,4.55 -11.18,12.47 -15.21,16.3l-137.96 138.51c-2.54,2.46 -3.9,3.97 -7.26,7.33l-38.95 39.05c-7.79,8.29 -39.88,41.41 -46.3,45.91 0.75,9.36 24.5,104.08 26.74,111.46 76.74,0 205.41,-10.56 224.03,81.73 12.03,59.64 -27.89,105.94 -87.72,113.87 -45.99,6.09 -87.94,-4 -127.04,-23.43 -9.28,-4.61 -22.68,-12.86 -31.33,-19.59 -12.29,-9.56 -29.42,-24.08 -40.67,-36.09 -3.25,-3.46 -9.37,-11.52 -12.51,-12.99l-59.68 55.87c-10.1,10.15 -55.18,50.7 -59.16,57.31 13.42,16.76 27.65,29.61 43.15,44.03 85.28,79.31 227.52,106.66 343.02,83.32 89.26,-18.04 164.1,-78.89 190.58,-164.03 20.9,-67.23 19.79,-154.4 -23.78,-213.61 -18.56,-25.22 -44.33,-47.32 -71.92,-60.89l-31.03 -13.84c-18.55,-6.84 -48.45,-16.39 -70.46,-18.43 2.11,-4.26 65.98,-63.91 73.59,-71.24 20.98,-20.22 69.03,-67.26 87.33,-83.27 5.38,-4.71 8.51,-7.81 12.5,-11.77 8.53,-8.49 16.21,-15.17 24.49,-23.72l-0.02 -130.01 -531.73 -0.34c-1.61,31.54 -0.19,91.99 -0.19,129.13 0,3.25 -0.01,6.5 -0.01,9.75l0.98 9z"/>
    <path class="fil19" d="M18 778.25l104.4 84.66c4.16,3.08 11.36,10.27 16.44,11.52 4.16,-2.94 14,-15.95 18.3,-20.77 32.74,-36.75 65.86,-71.63 117.01,-81.44 66.93,-12.83 134.27,23.02 130.83,103.12 -2.19,51.06 -25.23,79.4 -51.16,108.2 -17.84,19.82 -61.92,58.81 -83.08,75.14 -7.66,5.9 -14.54,12.1 -21.57,17.45l-54.74 45.12c-4.33,3.8 -6.77,5.64 -11.36,9.44l-98.38 80.51c-3.51,2.99 -6.74,5.64 -10.79,8.77l-64.45 52.56c-5.96,5.78 -2.38,57.47 -2.38,69.62l0.98 68.88c7.25,2.35 450.57,0.75 508.35,0.75 22.39,0 51.31,-1.59 72.88,0.21l0.22 -149.24c-12.79,-1.3 -214.05,-0.3 -232.65,-0.3 -19.07,0 -38.17,0.1 -57.24,0 -16.34,-0.09 -24.57,7.03 -43,16.06 -11.41,5.59 -72.82,36.94 -79.35,38.53 2.9,-4.21 26.23,-21.32 31.56,-25.46l225.58 -175.14c65.12,-52.63 128.08,-115.66 142.67,-200.98 11.13,-65.09 3.85,-135.28 -31.46,-189.6 -16.68,-25.65 -32.29,-41.27 -55.64,-58.9 -48.69,-36.76 -114.39,-51.39 -176.97,-52.12 -106.8,-1.26 -176.88,31.12 -243.84,99.79 -9.24,9.47 -18.27,19.95 -26.78,30.5 -4.56,5.65 -23.01,26.29 -24.38,33.12z"/>
    <path class="fil19" d="M1884.44 397.26c-48.85,-1.8 -98.75,8.52 -139.33,-24.4 -16.66,-13.53 -26.13,-24.33 -36.66,-44.82 -38.12,-74.19 3.47,-188.12 108.7,-189.23 12.88,-0.14 71.55,-1.43 79.63,1.01 -2.31,-0.14 -17.39,8.03 -19.72,9.98 -2,41.02 -0.29,86.37 -0.29,127.89 0,21.1 -0.09,42.22 0.02,63.33 0.19,36.77 7.41,48.01 7.65,56.24zm5.37 32.25l-0.63 -23.76c3.82,4.07 5.11,6.91 10.13,11.43 14.87,13.36 31.66,13.96 51.81,13.95l621.24 0 0.12 -325.28 -35.29 0.16c2.19,19.65 0.85,285.12 -0.65,289.42 -7.55,2.75 -454.53,0.99 -456.32,0.99 -38.16,0 -76.32,0 -114.48,0 -18.42,0 -37.47,3.45 -46.78,-11.1 -8.59,-13.42 -7.03,-33.51 -7.03,-50.39 0,-76.21 0.32,-152.49 -0.02,-228.7l-100.87 -0.28c-30.92,1.42 -55.1,9.96 -77.8,23.3 -86.61,50.91 -103.59,185.44 -24.63,259.42l10.62 8.83c18.56,15.76 46.65,26.31 70.88,30.32 22.7,3.77 74.63,3.53 99.7,1.69z"/>
    <path class="fil19" d="M2800.52 1740.42c-6.84,45.24 -65.79,56.98 -91.47,22.79 -26.89,-35.81 1.93,-91.86 49.73,-82.65 29.44,5.67 46.19,30.44 41.74,59.86zm-191.45 0c-3.29,24.97 -29.56,47.14 -59.52,41.88 -66.48,-11.66 -50.38,-113.8 18.35,-101.78 27.51,4.81 45.2,29.24 41.17,59.9zm-484.22 20.41c-19.1,0.45 -38.13,0.38 -51.56,-8.66 -27.5,-18.51 -29.11,-57.6 1.73,-76.75 19.28,-11.97 27.59,-6.84 50.19,-9.06l-0.36 94.47zm285.77 0.1l-62.57 -0.21c-0.28,-18.56 1.32,-36.61 -3.7,-53.1 -4.16,-13.68 -15.92,-25.36 -27.8,-29.58 -16.38,-5.81 -87.14,-3.89 -109.64,-3.4 3.93,-11.05 34.19,-63.22 35.64,-71.02l-21.43 0c-3.11,8.63 -28.91,54.02 -35.33,67.07 -4.5,9.17 3.09,18.5 6.99,24.06 33.5,0 67.09,-0.19 100.58,-0.02 15.69,0.08 27.86,6.39 32,18.59 3.73,10.95 2.94,33.35 2.42,46.86 -6.19,1.63 -170.45,1.95 -182.35,0.34l-0.05 -113.88c-28.5,0.11 -56.5,-1.82 -79.53,11.24 -19.19,10.87 -33.46,29.95 -33.36,56.97 0.09,25.93 12.4,44.14 33.62,55.57 22.76,12.26 51.34,10.39 79.88,10.39 119.35,0 238.72,0.25 358.07,-0.01 4.54,1.43 7.22,5.39 10.29,7.79 2.86,2.25 7.62,5.06 11.19,7 28.05,15.29 70.91,5.02 84.48,-14.44l87.69 -0.27c21.3,22.26 54.22,28.77 82.92,15.62 4.44,-2.03 7.45,-3.79 11.47,-6.71 1.52,-1.11 3.97,-3.03 5.54,-4.37l4.81 -4.43c4.62,-1.5 91.22,1.57 100.45,-0.86l0.08 -175.66c-3.81,-0.95 -5.32,-0.7 -9.17,-0.8 -4.37,-0.12 -6.65,-0.64 -10.41,1.05 -2.64,9.08 0.78,130.7 -0.87,156.09l-66.15 0.06c0.11,-6.41 7.05,-16.48 4.53,-38.76 -1.5,-13.27 -6.45,-23.7 -12.63,-32.54 -28.02,-40.05 -89.48,-40.25 -117.48,1.28 -5.83,8.65 -10.24,19.67 -11.62,32.36 -2.39,21.91 3.76,27.89 4.53,37.33l-59.74 0.29c1.9,-10.3 7.64,-14.07 5.38,-37.49 -7.96,-82.48 -130.78,-85.87 -141.87,-1.03 -2.3,17.61 2.63,25.01 4.97,38.23l-61.29 0.43c-2.91,-27.15 2.44,-146.71 -1.14,-157.18l-18.82 -0.23 -0.58 157.37z"/>
    <path class="fil19" d="M475.55 1760.53c-36.15,4.9 -74.22,-8.56 -73.38,-46.93 0.77,-34.98 37.75,-52.05 73.45,-45.89l-0.07 92.82zm79.82 -76.13c30.47,-24.74 64.68,-22.06 94.57,0 -0.31,7.94 -24.95,62.83 -30.16,76.54l-34.95 -0.04c-4.42,-12.34 -29.77,-69.22 -29.46,-76.5zm469.53 75.89c-6.62,1.66 -35.37,0.83 -43.16,0.11 -10.62,-0.99 -22.4,-6.47 -28.62,-14.48 -4.5,-5.79 -1.56,-11.49 -1.38,-20.11l-0.2 -67 -19.74 0c-0.39,23.34 0.73,47.68 -0.24,70.71 -2.04,48.57 -72.91,41.41 -75.71,1.23 -0.9,-12.93 -1.38,-60.2 0.39,-71.61l-20.24 -0.24c-1.34,19.68 2.71,70.57 -2.99,83.88 -10.07,23.51 -40.48,17.9 -67.98,18.32l-0.4 -102 -20.15 -0.2 0.15 101.66 -102.72 0.32c0.51,-5.4 5.48,-15.44 7.83,-20.89 4.11,-9.51 26.12,-59.49 24.44,-62.9 -7.89,-7.24 -19.86,-15.31 -30,-20.59 -44.39,-23.12 -78.43,-8.97 -114.28,20.59 0.48,7.96 12.29,32.13 16.3,42.15 3.62,9.06 15.64,33.37 17.05,41.23l-67.12 0.44 -0.41 -114.29c-29.87,0.38 -51.88,-2.15 -75.78,9.42 -17.99,8.7 -33.35,25.54 -37.04,48.4 -4.27,26.47 6.16,48.06 23.56,60.63 27.09,19.58 57.6,13.75 68.89,16.23 2.96,31.37 -20.44,36.03 -45.19,33 -7.89,-0.97 -13.85,-4.97 -21.8,-6.27l-5.5 18.73c26.99,10.67 70.24,15.04 86.16,-13.88 6.14,-11.14 5.39,-18.06 6.92,-32.06l277.44 -0.01c23.51,0 42.92,3.29 60.07,-9.56 9.97,-7.46 8.21,-8.88 13,-11.59 6.58,5.49 4.17,8.73 18.88,16.65 20.85,11.22 56.5,10.7 75,-11.4 0.5,-0.59 2.05,-2.74 2.09,-2.8 2.61,-2.93 -0.32,-0.64 3.18,-2.68 16.15,29.79 63.09,19.68 99.37,21.53 -0.02,-20.8 1.63,-169.79 -0.87,-175.96 -1.29,-0.79 1.19,-0.81 -3.94,-1.42l-14.95 0.35 -0.31 156.36z"/>
    <path class="fil19" d="M1246.93 429.25l35.88 -0.04 0 -223.38c0,-16.7 1.33,-18.97 -5.26,-32.68 -3.19,-6.64 -10.18,-21.1 -10.91,-27.48 5.81,2.76 24.9,30.16 28.92,34.86 15.03,17.61 39.94,51.58 55.76,70.97 28.56,34.99 56.11,72.85 83.79,106.23l55.4 70.09c0.18,0.2 0.56,0.53 0.71,0.7 1.89,1.98 25.78,0.68 30.07,0.67 0,-102.11 -1.29,-211.89 0.02,-313.49 0.16,-12.92 0.98,-10.14 -12.31,-10.07 -7.08,0.03 -16.73,-1.12 -22.55,0.83l-1.14 232.14c-0.06,12.22 9.48,29.6 13.29,40.98 -3.4,-1.03 -17.13,-19.58 -20.32,-23.66l-196.89 -249.88 -34.21 -0.45 -0.25 323.66z"/>
    <path class="fil19" d="M1148.12 283.78c-4.21,41.39 -27.98,81.42 -61.72,99.9 -108.06,59.18 -220.48,-41.71 -185.27,-159.93 3.02,-10.14 5.16,-14.67 9.44,-23.21 23.09,-46.11 75.34,-72.57 127.09,-65.45 69,9.5 118.38,70.59 110.46,148.69zm-138.38 -183.16c-26.93,2.51 -45.23,7.92 -65.51,17.92 -34.54,17.02 -64.07,51.22 -77.11,88.45 -39.77,113.5 35.52,235.54 168.16,227.4 93.85,-5.75 159.99,-92.3 151.54,-179.44 -6.42,-66.23 -42.2,-121.66 -104.81,-144.72 -21.97,-8.09 -47.81,-11.89 -72.27,-9.61z"/>
    <path class="fil19" d="M2791.9 304.89c-6.74,1.79 -44.59,0.32 -52.61,-0.62 -42.94,-5.04 -80.96,-38.08 -75.59,-88.53 2.96,-27.77 23.7,-52.6 46.35,-63.31 29.33,-13.86 65.9,-13.48 98.72,-11.38 -2.65,2.98 -4.21,3.33 -8.47,5.47 -2.79,1.4 -5.09,2.3 -8.1,4.5l-0.3 153.87zm-10.9 35.02c1.5,-3.29 2.73,-6.39 4.37,-9.86 4.8,-10.17 2,-7.05 6.64,-9.36 0.74,36.79 2.96,63.02 -28.91,74.84 -18.4,6.81 -48.11,5.48 -67.68,-0.91 -6.05,-1.97 -14.6,-6.24 -19.63,-7.27 -2.78,3.3 -10.49,27.74 -10.44,33.47 19.47,4.72 18.24,7.96 49.35,12.95 17.44,2.8 41.54,0.61 56.96,-4.2 64.29,-20.03 55.26,-82.02 55.26,-133.62 0,-30.43 1.67,-181.22 -0.71,-189.39 -8.21,-2.39 -58.88,-0.93 -70.43,-0.05 -31.59,2.4 -57.4,11.42 -81.8,28.22 -20.22,13.92 -37.97,41.59 -43.14,66.34 -9.86,47.16 8.71,86.23 34.72,107.56 27.29,22.39 69.65,31.97 115.44,31.28z"/>
    <path class="fil19" d="M475.57 355.26c-2.72,4.26 -7.42,8.71 -11.07,13.09 -3.78,4.52 -8.98,9.25 -10.52,14.66 26.18,20.4 42.44,33.71 77.53,43.67 47.09,13.37 109.4,10.6 143.6,-26.72 32.04,-34.97 30.93,-97.85 -16.25,-125.87 -62.8,-37.31 -157.8,-21.05 -155.44,-90.19 1.19,-34.8 39.02,-51.56 73.87,-49.83 25.61,1.26 48.88,8.26 69.6,21.66 4.18,2.71 14.95,11.47 19.31,12.38l20.33 -26.83c-4.82,-6.93 -27.71,-20.14 -36.51,-24.03 -47.93,-21.19 -105.43,-24.64 -147.44,4.13 -11.77,8.06 -21.93,18.35 -28.17,32.68 -7,16.08 -10.43,31.35 -6.88,51.89 16.45,95.16 163.66,62.51 187.75,118.06 7.29,16.82 4.48,37.18 -4.84,49.99 -28.34,38.94 -97.2,30.27 -138.18,7.74 -17.53,-9.63 -29.05,-21.88 -36.69,-26.48z"/>
    <path class="fil19" d="M-0 105.7l0 1.99 104.22 242.31c11.41,27.56 23.05,55.24 35.06,81.77l32.44 -0.01 69.64 -162.58c11.67,-26.94 23.11,-56.14 34.93,-81.72 3.49,-7.53 6.07,-13.76 8.8,-20.4 2.57,-6.24 5.87,-13.65 8.82,-20.79 3.32,-8.04 13.79,-34.83 17.49,-40.09l-39.9 -0.58c-2.04,6.23 -5.31,12.95 -7.49,18.19 -2.97,7.14 -4.69,11.65 -7.53,18.24l-90.02 216.68c-3.98,9.23 -5.39,9.68 -4.17,21.31 0.68,6.47 2.93,17.61 1.27,23.64l-120.88 -294.03c-2.86,-5.95 0.46,-1.97 -3.71,-3.99l-38.97 0.06z"/>
    <path class="fil19" d="M1667.81 1685.62c7.87,-10.59 30.72,-18.51 47.03,-18.62 19.59,-0.13 34.21,7.42 48.34,17.4l-30.07 76.42 -35.27 0.05c-1.19,-4.88 -5.48,-14.55 -7.34,-19.1 -2.79,-6.81 -5.18,-12.24 -7.95,-18.83 -2.79,-6.65 -5.57,-13.63 -7.79,-19.42 -2.28,-5.96 -5.81,-12.54 -6.95,-17.9zm169.96 74.9l-82.49 0.37c0.9,-10.42 33.73,-77.34 32.71,-82.58 -2.98,-5.19 -21.93,-17.45 -30.66,-21.88 -45.53,-23.07 -77.94,-8.88 -114.17,20.66 -0.17,6.54 4.93,15.28 7.63,21.44 3,6.85 6.01,14.51 8.56,20.62 3.63,8.7 16.4,34.53 16.38,41.95l-71.72 -0.18 -0.54 -114.26 -19.96 0.11c0,32.6 0,64.95 0,97.31 0,62.61 6.47,70.84 -28.21,70.4l-5.72 18.22c16.73,2.99 31.15,4.41 42.43,-6.85 11.67,-11.65 10.15,-26 11.67,-44.34 8.19,-2.14 238.59,-0.59 253.83,-0.66 2.26,-22.88 0.2,-125.19 0.43,-164.65l-0.13 -8.57c-0.54,-3.2 -0.72,-2.42 -1.03,-3.11 -4.65,-1.65 -13.14,-1.27 -18.97,-0.56l-0.04 156.56z"/>
    <path class="fil19" d="M1311.4 1666.66c3.86,14.37 -0.06,73.93 0.89,94.01 -20.43,0.34 -36.11,0.94 -51.49,-8.26 -26.25,-15.7 -30.69,-56.44 0.86,-76.72 16.89,-10.86 28.32,-8.24 49.74,-9.03zm213.24 114.31l0.26 -134.38 -19.76 0.08 -0.02 114.09 -73.74 0.09c-1.79,-7.73 -0.66,-97.95 -0.66,-113.86l-20.17 -0.28 -0.04 114.05 -78.19 -0.07 0.15 -114.1c-35.87,0.3 -80.67,-3.66 -103.61,34.03 -9.35,15.38 -12.79,38.58 -6.15,56.1 21.61,56.94 101.63,44.12 163.28,44.12 45.64,0 93.3,-1.31 138.65,0.13z"/>
    <path class="fil19" d="M2895.01 398.27c-2.57,4.41 -8.79,28.03 -8.18,32.87 10.93,4.54 34.83,4.24 46.74,1.75 13.95,-2.93 24.37,-10.87 32.07,-21.18 16.22,-21.75 14.65,-59.9 14.65,-92.61 0,-23.32 -1.59,-207.21 0.64,-212.59l-35.65 -0.67c-1.34,57.07 -0.07,115.18 -0.07,171.85 0,27.67 6.44,104.2 -12.19,117.08 -5.22,3.62 -10.01,4.78 -17.29,5.16 -8.74,0.45 -14.14,-1.96 -20.72,-1.66z"/>
    <path class="fil19" d="M756.76 428.48c6.55,1.54 30.63,1.79 36.79,-0.1l-0.01 -311.46c-0.03,-4.45 -0.47,-6.66 0.96,-10.56 -9.05,0.33 -25.55,-1.6 -37.26,-0.63l-0.48 322.75z"/>
    <path class="fil19" d="M92.1 1666.37l0.44 94.88c-21.53,-1.72 -33.47,1.79 -50.98,-8.8 -30.49,-18.42 -27.43,-59.49 -0.15,-76.49 19.49,-12.15 26.86,-7.4 50.69,-9.59zm-92.1 35.41l0 23.09c2.02,3.19 5.94,53.92 76.72,55.72 17.72,0.45 125.42,2.18 133.31,-0.62 3.28,-8.12 1.01,-114.47 1.01,-133.2l-20.23 -0.11 0.02 114.16c-10.09,0.56 -72.17,1.24 -78.03,-0.57l-0.25 -113.5c-28.03,-0.63 -51.64,-1.66 -74.26,8.68 -10.01,4.58 -17.78,10.83 -23.81,17.9 -4.74,5.56 -9.18,13.79 -11.44,20.33 -1.27,3.65 -1.01,5.14 -3.04,8.12z"/>
    <path class="fil19" d="M903.75 1952.37c4.39,2.85 36.52,55.26 43.79,64.1 5.61,-3.78 37.91,-58.22 45,-64.47l0.22 99.25 25.22 -0.41 -0.24 -140.81 -26.35 0.09c-3.8,4.08 -7.74,11.47 -10.59,15.7 -3.43,5.08 -6.74,10.87 -10.39,16.57 -4.19,6.56 -7.05,10.64 -10.47,16.04l-11.18 16.34c-6.94,-4.1 -35.59,-56.58 -43.85,-64.84l-26.16 0.62 -0.48 140.61 25.15 -0.35 0.33 -98.44z"/>
    <path class="fil19" d="M2686 1991.84c5.09,-2.17 39.23,-1.3 43.44,-0.95 12.82,1.06 24.01,5.23 23.77,19.93 -0.23,13.7 -12.18,17.12 -25.29,18.1 -5.6,0.42 -40.61,2 -41.93,-1.59 -0.09,-0.23 -0.35,-0.61 -0.44,-0.92l-0.47 -7.07c0.03,-3.25 0.03,-6.5 0.03,-9.76 0,-5.73 -0.68,-13.21 0.89,-17.74zm0 -58.46c0.33,-0.14 0.73,-0.33 1.01,-0.4l3.32 -0.74c0.64,-0.07 2.93,-0.02 3.71,-0.02 15.79,0 40,-2.39 47.79,7.49 5.34,6.77 5.22,16.67 -1.88,23.28 -9.45,8.81 -39.88,7.06 -53.74,5.86 -1.6,-3.61 -1.17,-4.41 -1.12,-9.2 0.06,-7.05 -0.68,-21.69 0.91,-26.27zm65.87 44.97c4.8,-5.82 8.05,-4.52 13.49,-13.14 3.75,-5.95 5.05,-11.76 5.08,-18.95 0.12,-36.5 -38.97,-36.32 -61.77,-36.32 -10.55,0 -39.51,-1.28 -48.14,0.62l-0.14 140c7.99,2.02 43.46,0.68 54.37,0.69 19.06,0 31.99,0.15 45.96,-7.92 7.38,-4.26 9.68,-6.43 13.75,-14.12 10.04,-18.98 3.56,-41.71 -22.6,-50.86z"/>
    <path class="fil19" d="M254.71 1953.15c4.29,2.2 36.57,45.66 39.08,48.87l38.7 49.17 20.47 -0.66 -0.12 -140.56 -24.64 0.39 -0.21 94.68c-3.25,-2.02 -3.84,-3.57 -5.7,-5.93 -1.79,-2.29 -3.37,-3.97 -4.92,-5.99 -2.74,-3.56 -6.03,-8.12 -9.08,-11.74l-37.27 -48.02c-3.26,-4.14 -5.74,-7.5 -8.99,-11.63 -3.35,-4.25 -6.32,-7.74 -8.79,-11.72l-23.44 -0.01 0.12 141.1 24.75 -0.01 0.04 -97.94z"/>
    <path class="fil19" d="M766.31 1931.39c28.92,-4.47 51.21,15.55 54.85,40.04 8.73,58.71 -60.41,79.41 -87.11,36.14 -17.16,-27.82 -4.32,-70.52 32.26,-76.18zm-5.96 122.04l28.14 0c3.06,-2.66 9.68,-3.16 13.94,-4.82 72.25,-28.16 56.06,-142.54 -29.01,-141.14 -77.63,1.27 -98.23,101.23 -37.6,136.09l17.83 7.34c0.57,0.15 3.79,0.95 3.92,1 2.06,0.75 1.72,0.79 2.78,1.53z"/>
    <path class="fil19" d="M2377.29 1932.91c12.3,0 31.66,-1.09 42.89,0.44 13.3,1.81 21.75,8.55 21.92,22.64 0.38,30.4 -40.94,23.78 -64.95,23.78l0.14 -46.86zm57.84 65.71c0.3,-0.24 0.67,-0.55 0.9,-0.72 0.22,-0.15 0.58,-0.49 0.85,-0.67 0.3,-0.2 1.4,-0.83 1.74,-1.02l7.32 -3.38c9.19,-4.83 16.8,-12.66 19.86,-24.01 4.32,-16.01 0.32,-35.34 -9.95,-44.96 -11.2,-10.48 -26.78,-13.87 -45.57,-13.9 -16.61,-0.04 -42.57,-1.51 -58.07,0.29l-0.08 140.9 24.99 -0.42 0.27 -48.67 30.84 0.08c4.79,8.06 10.15,15 16.92,24.33l16.62 24.75 30.03 -0.65 -18.42 -25.74c-3.91,-5.49 -15.6,-20.66 -18.25,-26.21z"/>
    <path class="fil19" d="M1135.34 1991.32c-6.23,-28.7 12.08,-55 36.34,-59.67 30.1,-5.79 51.95,14.01 56.83,38.1 6.22,30.68 -12.09,54.2 -36.11,59.67 -30.36,6.91 -52.02,-14.91 -57.06,-38.1zm33.9 62.11l24.07 0c6.42,-2.97 28.9,-4.64 45.03,-24.64 10.64,-13.2 18.85,-30.1 17.4,-53.35 -2.34,-37.76 -32.26,-68.17 -73.14,-67.7 -21.92,0.25 -38.79,7.39 -51.24,18.83 -29.36,26.97 -30.35,70.55 -6.98,100.98 16.23,21.14 38.26,22.32 44.86,25.88z"/>
    <path class="fil19" d="M1937.2 2028.3l-0.51 -95.11c18.86,-1.98 41.51,-1.25 54.76,6.81 34.73,21.13 29.26,84.52 -23.86,88.43 -7.38,0.54 -23.19,0.61 -30.39,-0.13zm-25.68 22.43c11.77,1.74 34.82,0.57 48.13,0.41 17.78,-0.21 27.85,-1.65 41.85,-8.35 21.63,-10.34 38.15,-32.95 37.86,-62.44 -0.47,-47.36 -36.79,-70.38 -78.49,-70.4 -11.05,0 -40.18,-1.33 -49.1,0.6l-0.25 140.18z"/>
    <path class="fil19" d="M574.83 1932.91c17.07,0 37.5,-2.25 51.03,4.89 41.22,21.75 33.27,90.69 -25.43,90.69l-25.6 0 0.01 -87.11 -0.01 -8.47zm-25.23 117.85c12.54,1.75 35.98,0.55 49.61,0.46 104.71,-0.7 105.52,-141.06 -1.21,-141.26 -13.96,-0.03 -35.25,-1.23 -48.33,0.29l-0.07 140.51z"/>
    <path class="fil19" d="M447.53 2053.43l20.63 0c5.49,-2.81 12.79,-1.4 26.61,-8.33 4.37,-2.2 17.89,-8.84 20.2,-14.06 2,-3.7 1.32,-50.68 0.68,-58.82l-60.01 -0.04 0.04 21.88 35.86 0.31 0.04 24.96c-12.76,12.33 -39.44,14.66 -56.79,6.09 -34.94,-17.25 -33.15,-77.96 5.31,-91.99 29.96,-10.92 49.52,10.21 55.59,11.52 3.35,-4.22 12.93,-14.41 14.35,-18.18 -2.62,-5.66 -21.93,-14.43 -28.46,-16.05 -77.97,-19.37 -118.43,54.78 -88.33,108.75 16.59,29.74 42.85,29.83 54.28,33.96z"/>
    <path class="fil19" d="M84.19 1970.61c7.19,-10.84 19.44,-19.91 28.83,-30.76 4.14,-4.78 9.93,-9.9 14.5,-14.62 3.33,-3.44 11.63,-11.66 13.73,-15.13 -6.96,-0.42 -14.81,-0.1 -21.92,-0.17 -8.99,-0.08 -9.03,0.75 -14.21,6.29 -5.85,6.26 -13.6,14.38 -20.08,21.27l-40.89 42.34 -0.39 -69.84 -24.49 -0.03 0.02 141.26 24.72 -0.02 0.09 -40.4c0.04,-0.09 17.93,-19.43 21.66,-21.38 3.3,1.45 1.81,-0.01 4.52,3.61l43.02 57.79 30.73 0.37 -59.84 -80.58z"/>
    <path class="fil19" d="M1666.13 1941.11c3.97,4.08 3.19,5.83 6.2,12.3 2.27,4.89 3.96,8.74 5.98,13.49 2.58,6.09 10.75,22.88 11.13,28.08l-46.43 0.03 20.84 -50.86c1.7,-3.02 1.36,-2 2.28,-3.04zm-72.85 109.48c6.98,1.44 18.89,1.63 24.85,-0.11l14.91 -33.43 66.34 0.05c1.54,4.2 12.7,32 14.8,33.27 6.24,2.13 17.69,0.95 25.37,0.87 -1.26,-7.77 -10.97,-27.27 -14.78,-35.64l-38.49 -88.23c-2.01,-4.88 -5.66,-14.06 -7.97,-17.59l-23.93 -0.67 -53.74 123.91c-1.88,4.35 -6.23,13.38 -7.36,17.57z"/>
    <path class="fil19" d="M2231.21 1995.08c1.63,-7.31 8.59,-20.61 11.52,-27.78 3.34,-8.16 7.36,-18.75 10.96,-26.46 3.32,2.47 0.14,-1.42 3.07,3.04 0,0 1.3,3 1.49,3.46l20.45 47.65 -47.49 0.09zm-24.33 55.71c2.46,-3.73 13.07,-28.37 14.65,-33.69l65.99 0.05c2.93,5.79 5.55,11.15 7.75,17.02 2.24,5.96 3.96,12.48 7.83,16.98l25.44 -0.07c-2.55,-9.27 -24.78,-57.13 -30.85,-71.57l-31.13 -70.36 -23.14 0.63c-3.46,7.82 -60.06,133.46 -61.21,141.45l24.67 -0.44z"/>
    <path class="fil19" d="M2907.15 1994.65c0.56,-3.39 21.09,-50.8 23.18,-53.55 4.78,4.52 23.31,51.16 23.57,53.96l-46.75 -0.41zm-9.66 22.47l65.73 0.11c5.89,9.27 11.19,27.49 14.61,33.17 6.54,1.36 20.01,1.3 26.66,0.22 -2.39,-5.88 -60.16,-140.36 -63.2,-141.45l-22.57 0.09c-1.31,6.2 -18.23,42.34 -22.92,53.64 -6.53,15.75 -36.5,80.8 -38.01,88.44l25.36 -0.55 14.34 -33.67z"/>
    <path class="fil19" d="M1802.71 2053.43l19.97 0c6.24,-2.25 12.93,-2 19.99,-5.06 17.95,-7.76 27.93,-21.17 31.52,-41.54 2.46,-13.94 1.92,-79.62 1.3,-96.88l-24.54 0.01c-1.86,24.89 0.38,53.48 -0.3,78.95 -0.65,24.51 -9.99,42.06 -35.94,41.31 -26.73,-0.77 -34.74,-18.15 -34.93,-42.56 -0.2,-25.22 1.16,-52.91 -0.18,-77.82l-24.93 0.73c-1.04,10.4 -0.85,83.83 0.7,93.35 7.23,44.52 35.66,43.56 47.34,49.51z"/>
    <path class="fil19" d="M2540.25 1995.13c0.9,-9.43 19.03,-43.76 23.07,-55.58 2.94,8.4 8.31,18.5 11.81,26.87 2.96,7.06 10.77,21.74 11.14,28.61l-46.02 0.1zm-24.43 55.44c5.11,-8.5 9.32,-25.93 15.03,-33.47l65.75 0.13 14.25 33.99 26.18 -0.02 -15.16 -36.5c-6.5,-13.4 -42.48,-99.36 -47.17,-105.4 -29.34,-0.17 -20.28,-4.3 -30.04,16.65 -2.91,6.24 -4.84,11.48 -7.77,17.76 -11.06,23.8 -20.13,48.07 -31.12,71.1l-15.48 36.45 25.53 -0.69z"/>
    <path class="fil19" d="M1519.71 2053.43l19.29 0c0.31,-0.19 0.77,-0.81 0.95,-0.52 0.01,0 17.03,-3.92 26.22,-11.73 17.15,-14.55 16.7,-44.25 3.42,-55.72 -23.23,-20.07 -59.28,-15.98 -67.53,-31.01 -2.71,-4.93 -1.73,-12.22 1.3,-16.4 8.12,-11.21 31.16,-8.38 44.65,-1.69 4.77,2.37 8.32,5.45 13.36,7.7 3.49,-2.88 11.74,-15.13 13.16,-18.51 -39.51,-31.11 -94.92,-18.11 -98.84,16.99 -1.97,17.56 3.17,29.59 14.46,37.13 25.58,17.11 66.39,9.82 63.84,36 -1.67,17.22 -33.2,19.64 -53.98,7.73l-15.36 -10.06c-2.24,1.67 -12.73,13.9 -14.35,16.95 10.87,15.94 48.87,22.88 49.41,23.14z"/>
    <path class="fil19" d="M1286.37 2050.73l25.01 0.42 -0.11 -57.29 71.58 -0.16 -0.41 -22.91c-10.57,0.6 -63.68,1.27 -69.93,-0.82 -2.43,-2.08 -1.07,-34.3 -0.93,-37.03l80.68 -0.04 -0.61 -22.55 -104.99 -0.37 -0.29 140.75z"/>
    <path class="fil19" d="M282.02 1666.67c19.45,0 46.6,-2.4 48.75,31.27 0.93,14.54 1.65,49.11 0.02,62.8 -7.88,0.38 -85.89,-0.96 -91.41,1.04 -1.47,8.4 -0.83,9.57 -0.73,18.93l112.11 0.1c1.68,-24.39 4.67,-88.63 -6.88,-109.04 -5.99,-10.56 -14.23,-16.95 -24.74,-21.41 -11,-4.68 -25.06,-3.7 -37.12,-3.7l0 20.01z"/>
    <path class="fil19" d="M2816.38 0l-34.57 0c-4.11,2.37 -21.86,3.29 -27.97,22.97 -3.55,11.43 -3.99,35.86 -2.49,48.67 11.7,0.78 67.61,1.75 75.01,-0.49l0.47 -25.38c-18.17,-2.84 -27.04,0.14 -47.23,-1.01 -1.99,-25.46 6.66,-20.61 36.18,-20.61l0.6 -24.15z"/>
    <path class="fil19" d="M1102.22 1780.68l19.58 0.09c0.41,-3.02 1.88,-165.18 0.48,-173.13 -1,-5.66 -9.36,-4.6 -19.94,-3.61l-0.12 176.65z"/>
    <path class="fil19" d="M2961.35 1604.59l-0.87 1.97c-1.53,7.69 0.22,-4.42 -0.4,2.26 -1.2,12.91 0.18,168.76 0.6,171.86l19.42 0.13 0.06 -176.78 -15.73 -0.41c-6.21,0 -0.67,-0.12 -3.08,0.97z"/>
    <path class="fil19" d="M2070.45 2051.26c4.26,-0.29 8.13,-0.07 12.21,-0.04 4.9,0.04 8.97,0.73 12.75,-1.28l0.39 -139.78 -25.2 -0.23 -0.15 141.33z"/>
    <polygon class="fil19" points="2808.85,2051.16 2833.8,2050.99 2833.5,1910.04 2808.79,1910.21 "/>
    <path class="fil19" d="M1876.81 71.51l34.35 0.55c1.36,-4.96 1.35,-29.54 0.26,-34.72l-33.96 -0.25 -0.65 34.42z"/>
    <path class="fil19" d="M2456.66 500.09l34.61 0.08c0.16,-6.73 -2.01,-31.63 1.12,-34.05 -5.99,-1.7 -29.22,-1.4 -35.83,-0.52l0.1 34.49z"/>
    <polygon class="fil19" points="1432.53,1803.91 1432.49,1824.28 1452.79,1824.49 1453.15,1819.59 1453.09,1815.93 1452.67,1803.08 "/>
    <polygon class="fil19" points="1398.08,1824.25 1418.54,1824.33 1418.67,1804.22 1398.05,1803.59 "/>
    <path class="fil19" d="M2124.67 1623.2l20.51 1.04c0.76,-9.2 1.72,-19.57 -2.95,-20.33 -3.25,-0.53 -12.32,-0.77 -17.56,0.56l0 18.73z"/>
    <polygon class="fil19" points="2090.02,1623.63 2110.51,1623.88 2110.69,1603.92 2090.07,1603.74 "/>
    <path class="fil19" d="M1276.98 1623.2l20.52 1.04c0.32,-3.95 0.18,-6.72 0.21,-10.5 0.02,-1.64 -0.15,-12.79 -2.17,-9.52l-8.2 -0.59c-3.91,0.09 -6.6,-0.11 -10.35,0.84l-0.01 18.73z"/>
    <polygon class="fil19" points="1504.88,1823.75 1524.89,1823.97 1525,1803.64 1504.94,1803.73 "/>
   </g>
   <path class="fil20" d="M1113.18 830.32c-2.49,-1.1 -3.33,-2.71 -5.48,-5.18 -13.63,-15.67 -46.77,-15.57 -56.87,3.28 9.12,-1.65 16.43,-3.66 25.99,-0.45 5.6,1.88 15.23,6.39 16.67,12.13 -17.38,-1.98 -28.87,-3.42 -43.73,4.96 -10.75,6.07 -20.17,16.98 -22.08,32.32 11.72,-6.46 14.31,-24.91 53.65,-22.1 -13.43,7.08 -23.28,5.3 -38.64,26.71 -7.94,11.07 -14.02,41.22 -5.26,53.06 0.07,-28.89 18.69,-56.46 43.67,-61.51 -2.86,9.12 -41.41,33.03 -22.2,86.92 1.18,3.3 0.85,3.02 3.22,5.47 1.42,-19.56 -0.74,-45.8 20.27,-64.92 3.08,-2.81 0.01,-1.02 4.4,-2.82 -0.94,4.42 -2.38,6.65 -3.68,10.77 -11.09,35.17 6.63,73.95 15.9,76.83 -0.19,-12.86 -7.32,-19.99 -3.9,-42.98 1.75,-11.77 7.57,-26.94 17.77,-30.7 5.13,38.42 6,91.06 1.97,130.84 -1.3,12.79 -4.29,29.97 -4.72,41.69 -6.66,-1.75 -14.67,-9.47 -20.65,-13.62 -38.38,-26.64 -85.71,-40.21 -133.05,-32.85 -15.22,2.37 -39,9.73 -49.69,17.77 2.2,1.04 20.64,-4.36 25.79,-5.27 29.76,-5.27 63.34,-0.97 90.45,9 25.53,9.4 44.84,21.82 65.82,36.48 5.38,3.76 15.03,11.01 19.77,15.81 -3.16,6.03 -65.57,60.52 -73.34,63.21 -22.42,-17.75 -38.32,7.21 -28.63,20.19 24.09,32.3 80.45,-34.82 101.08,-52.31l17.68 -15.95c2.26,1.14 6.53,4.55 8.65,6.67 19.39,19.42 40.53,39.45 62.03,56.12 41.47,32.15 63.83,-1.57 45.16,-17.23 -9.25,-7.76 -17.94,-2.52 -24.5,2.49 -19.55,-7.73 -49.61,-42.03 -68.71,-57.86 -3.1,-2.56 -2.03,-0.64 -4.59,-4.11 1.48,-4.03 5.04,-5.93 8.7,-8.66 23.33,-17.44 47.13,-34.28 74.96,-44.37 34.37,-12.47 80.67,-16.77 117.14,-3.32 -0.9,-3.97 -0.66,-2.73 -8.73,-6.39 -57.42,-26.1 -121.42,-14.22 -172.3,20.18 -6.27,4.24 -13.88,11.61 -21.3,13.88 -6.58,-52.91 -9.1,-107.83 -4.13,-161.3 0.12,-1.31 0.28,-4.17 0.43,-5.2 0.07,-0.43 0.23,-1.74 0.34,-2.15 0.63,-2.21 0.89,-2.18 1.46,-3.06 20.32,9.74 20.79,50.47 12.33,72.5 8.63,-3.02 17.9,-28.06 19.51,-39.9 2.46,-18.21 -1.53,-35.31 -7.89,-48.31 7.38,1.49 17.91,20.25 20.67,27.86 2.36,6.52 3.71,12.14 4.55,19.77 0.64,5.72 -0.92,18.73 0.77,21.97 15.33,-24.74 7.43,-62.53 -11.22,-83.43 -2.05,-2.3 -5.44,-5.06 -7.29,-8.86 12.66,1.29 24.92,13.21 30.5,20.91 7.94,10.95 11.5,23.01 12.76,39.55 7.59,-14.57 3.06,-39.94 -5.62,-52.7 -10.94,-16.07 -18.94,-18.56 -39.42,-26.76 21.48,-2.17 42.78,5.92 53.19,22.83 6.79,-13.78 -25.91,-50.64 -64.72,-37.69 0.87,-2.94 3.04,-5.24 6.26,-7.49 2.5,-1.76 6.16,-3.51 9.87,-4.78 10.96,-3.75 16.33,-0.96 26.61,-0.2 -2.34,-4.42 -9.16,-8.53 -12.71,-10.3 -6.4,-3.19 -11.11,-4.51 -18.96,-4.2 -21.25,0.86 -19.23,10.28 -30.4,16.72 -3.13,-4.7 -5.49,-11.1 -7.51,-16.55 -2.02,-5.46 -2.81,-13.57 -5.69,-18.52 -2.85,12.75 -7.67,23.41 -12.38,35.11z"/>
   <path class="fil21" d="M1169.2 1511.44c0.67,-3.65 1.11,-3.08 3.37,-5.19l11.38 -13.08c-2.4,-5.26 -2.99,-2.85 -5.48,-7.85l-4.95 -3.77c-5.26,-4.7 -34.04,-32.94 -38.42,-34.75 -3.28,1.37 -30.89,32.36 -35.17,36.85 -13.57,14.22 -14.41,12.19 7.62,30.9l18.55 16.87c5.99,5.38 5.18,7.94 14.45,9.89l28.65 -29.87z"/>
   <path class="fil22" d="M810.84 818.02c0.31,0.22 0.78,0.16 0.92,0.68l2.55 2.89c2.22,3.6 3.5,8.25 7.78,12.2 5.05,-1.99 0.72,-0.34 3.62,-1.78l13.43 -6.2c4.96,-4.51 13.59,-7.13 18.29,-11.02 2.2,-3.97 -18.05,-35.84 -19.5,-37.45 -5.29,0.53 -13.73,6.51 -18.5,9.16 -5.07,2.82 -13.38,7.23 -18.61,10.49 2.64,8.5 9.41,15.71 10.02,21.03z"/>
   <path class="fil23" d="M884.68 717.29l-2.34 27.32c5.28,1.55 17.37,3.44 23.69,2.56l17.05 0.88 3.14 -39.22 -22.48 -2.44c-17.96,-1.81 -16.38,0.44 -17,4.86 -0.89,6.49 0.6,3.69 -2.06,6.04z"/>
   <path class="fil24" d="M1328.39 838.77l4.59 28.55c4.66,1.88 8.13,0.37 14.83,-0.89 4.93,-0.93 10.03,-2.23 15.49,-2.75l-5.11 -29.63 -29.8 4.72z"/>
   <path class="fil25" d="M1026.25 681.6c-4.97,0.52 -3.17,4.14 -5.77,8.58 -8.11,2.11 -7,-1.79 -16.75,-1.9 -5.09,-0.06 -12.07,0.13 -17.47,-1.37 -1.83,-3.71 1.22,-8.34 1.35,-14.59 0.08,-3.86 -0.09,-4.39 0.35,-8.5 0.69,-6.47 -1.02,-5.39 0.21,-11.01 5.09,-2.81 34.29,-1.67 37.36,2.43 2.3,3.08 -1.08,12.88 -0.98,15.89 0.27,7.7 -0.1,3.39 2.49,6.03l2.48 -25.55c-7.22,-1.24 -38.06,-5.3 -43.37,-4.08l-4.2 42.21c5.34,1.11 37.94,4.68 43,3.94l1.3 -12.08z"/>
   <path class="fil26" d="M885.59 705.57l-0.91 11.72c2.66,-2.35 1.17,0.45 2.06,-6.04 0.62,-4.42 -0.96,-6.67 17,-4.86l22.48 2.44 -3.14 39.22 -17.05 -0.88c0.26,0.18 0.64,0.14 0.8,0.52 0.41,0.97 12.39,3.18 18.54,1.48 1.04,-9.03 4.69,-35.56 2.54,-42.55l-41.51 -4.2 -0.81 3.15z"/>
   <path class="fil27" d="M896.5 813.17c-2.9,-9.06 -16.41,6.08 -12.85,-15.49 4.16,-25.24 -3.63,-25.85 9.04,-26.18 2.76,-0.08 4.57,-0.05 7.35,0.12 5.7,0.36 10.68,1.99 15.85,1.01 -2.4,-1.89 -1.95,-1.47 -7.23,-1.97 -7,-0.67 -17.96,-2.5 -24.45,-2l-4.51 42.82 16.8 1.69z"/>
   <path class="fil28" d="M964.39 754.44l33.49 3.72c1.22,-8.18 6.05,-37.55 3.68,-43.65l-7.73 -0.4 5.74 5.07c0.13,-0.23 0.54,0.4 0.79,0.61 -2.49,4.71 -1.17,18.8 -3.19,29.2 -0.8,4.15 -1.02,2.19 -2.22,7.02l-20.12 -1.81c-3.67,-0.74 -7.68,-3.34 -10.44,0.24z"/>
   <path class="fil29" d="M1099.48 654.97l-0.51 -4.59c1.52,-0.89 0.95,-0.95 3.21,-1.49 0.88,-0.21 2.29,-0.22 3.24,-0.25 -2.12,-9.1 -2.9,-0.46 7.01,-12.53 1.95,-2.37 3.93,-3.75 5.8,-5.13 4.12,-3.05 1.65,-1.78 4.55,-7.91 -2.73,0.72 -25.88,23.1 -26.92,28.52 0.19,0.27 0.45,0.38 0.56,0.83 0.12,0.44 0.46,0.63 0.62,0.77 1.61,1.43 0.53,0.55 2.44,1.78z"/>
   <path class="fil30" d="M839.14 825.81l-13.43 6.2c-2.9,1.44 1.43,-0.21 -3.62,1.78 -4.28,-3.95 -5.56,-8.6 -7.78,-12.2l-2.55 -2.89c-0.14,-0.52 -0.61,-0.46 -0.92,-0.68 1.84,11.41 -1.14,8.03 10.04,17.98 2.3,-0.24 3.21,-0.25 5.32,-1.04l8.59 -4.73c5.38,-3.36 1.57,-0.08 4.35,-4.42z"/>
   <path class="fil31" d="M1293.58 1277.22c0.44,-0.79 1.45,1.59 1.64,-4.43 0.12,-3.54 0.03,-1.49 -1.11,-4.36l-7.87 -0.6c1.38,0.98 0.01,0.83 4.07,2.38 1.81,0.69 1.36,0.37 3.33,0.69l-0.06 6.32z"/>
   <path class="fil32" d="M1050.5 1352.17c-1.54,-4.3 0.77,-1.26 -3.3,-4.95 -1.58,-1.44 -2.38,-2.03 -4.74,-3.18 1.14,2.69 1.37,3.17 3.07,4.86 2.6,2.58 2.4,2.01 4.97,3.27z"/>
   <path class="fil33" d="M1052.61 707.29l-1.69 -4.37 -4.62 -1.42c1.57,4.62 1.8,4.36 6.31,5.79z"/>
   <path class="fil34" d="M1212.85 662.94c3.5,-2.1 3.44,-2.2 5.48,-5.91 -4.83,0.97 -4.35,1.4 -5.48,5.91z"/>
  </g>
 </g>
</svg>
